<svg version="1.1" viewBox="0.0 0.0 960.0 540.0" fill="none" stroke="none" stroke-linecap="square" stroke-miterlimit="10" xmlns:xlink="http://www.w3.org/1999/xlink" xmlns="http://www.w3.org/2000/svg"><clipPath id="ga2dc0fb59a_0_5.0"><path d="m0 0l960.0 0l0 540.0l-960.0 0l0 -540.0z" clip-rule="nonzero"/></clipPath><g clip-path="url(#ga2dc0fb59a_0_5.0)"><path fill="#ffffff" d="m0 0l960.0 0l0 540.0l-960.0 0z" fill-rule="evenodd"/><path fill="#000000" fill-opacity="0.0" d="m310.58792 90.456696l346.14175 6.2677155" fill-rule="evenodd"/><path stroke="#595959" stroke-width="4.0" stroke-linejoin="round" stroke-linecap="butt" d="m310.58792 90.456696l346.14175 6.2677155" fill-rule="evenodd"/><path fill="#000000" fill-opacity="0.0" d="m491.85828 94.879265l-34.80316 314.74014" fill-rule="evenodd"/><path stroke="#595959" stroke-width="4.0" stroke-linejoin="round" stroke-linecap="butt" d="m491.85828 94.879265l-34.80316 314.74014" fill-rule="evenodd"/><path fill="#000000" fill-opacity="0.0" d="m310.58792 89.41207l-36.97638 305.98425" fill-rule="evenodd"/><path stroke="#595959" stroke-width="4.0" stroke-linejoin="round" stroke-linecap="butt" d="m310.58792 89.41207l-36.97638 305.98425" fill-rule="evenodd"/><path fill="#000000" fill-opacity="0.0" d="m657.7769 95.685036l-32.409485 306.3937" fill-rule="evenodd"/><path stroke="#595959" stroke-width="4.0" stroke-linejoin="round" stroke-linecap="butt" d="m657.7769 95.685036l-32.409485 306.3937" fill-rule="evenodd"/><path fill="#000000" fill-opacity="0.0" d="m273.60892 396.96872c23.98645 0 113.078735 -2.3722534 143.91864 0c30.839905 2.372284 34.267273 11.861328 41.120728 14.233612" fill-rule="evenodd"/><path stroke="#595959" stroke-width="4.0" stroke-linejoin="round" stroke-linecap="butt" d="m273.60892 396.96872c23.98645 0 113.078735 -2.3722534 143.91864 0c30.839905 2.372284 34.267273 11.861328 41.120728 14.233612" fill-rule="evenodd"/><path fill="#000000" fill-opacity="0.0" d="m458.6483 414.36484l167.65353 -11.086609" fill-rule="evenodd"/><path stroke="#595959" stroke-width="4.0" stroke-linejoin="round" stroke-linecap="butt" d="m458.6483 414.36484l167.65353 -11.086609" fill-rule="evenodd"/><path fill="#000000" fill-opacity="0.0" d="m275.18896 117.03412l31.62207 -3.1496048" fill-rule="evenodd"/><path stroke="#595959" stroke-width="4.0" stroke-linejoin="round" stroke-linecap="butt" d="m275.18896 117.03412l31.62207 -3.1496048" fill-rule="evenodd"/><path fill="#000000" fill-opacity="0.0" d="m276.77167 118.6168l-39.527573 295.74805" fill-rule="evenodd"/><path stroke="#595959" stroke-width="4.0" stroke-linejoin="round" stroke-linecap="butt" d="m276.77167 118.6168l-39.527573 295.74805" fill-rule="evenodd"/><path fill="#000000" fill-opacity="0.0" d="m234.06824 415.9475l222.99213 1.5747986" fill-rule="evenodd"/><path stroke="#595959" stroke-width="4.0" stroke-linejoin="round" stroke-linecap="butt" d="m234.06824 415.9475l222.99213 1.5747986" fill-rule="evenodd"/><path fill="#000000" fill-opacity="0.0" d="m654.77167 134.61417l39.527527 12.472443" fill-rule="evenodd"/><path stroke="#595959" stroke-width="4.0" stroke-linejoin="round" stroke-linecap="butt" d="m654.77167 134.61417l39.527527 12.472443" fill-rule="evenodd"/><path fill="#000000" fill-opacity="0.0" d="m693.3333 146.92914l-32.440918 267.43307" fill-rule="evenodd"/><path stroke="#595959" stroke-width="4.0" stroke-linejoin="round" stroke-linecap="butt" d="m693.3333 146.92914l-32.440918 267.43307" fill-rule="evenodd"/><path fill="#000000" fill-opacity="0.0" d="m449.1601 417.52756l211.93701 1.5747986" fill-rule="evenodd"/><path stroke="#595959" stroke-width="4.0" stroke-linejoin="round" stroke-linecap="butt" d="m449.1601 417.52756l211.93701 1.5747986" fill-rule="evenodd"/><path fill="#000000" fill-opacity="0.0" d="m237.2336 414.36484l39.527573 -22.141754" fill-rule="evenodd"/><path stroke="#595959" stroke-width="4.0" stroke-linejoin="round" stroke-linecap="butt" d="m237.2336 414.36484l39.527573 -22.141754" fill-rule="evenodd"/><path fill="#000000" fill-opacity="0.0" d="m623.1181 403.2861l37.795288 14.48819" fill-rule="evenodd"/><path stroke="#595959" stroke-width="4.0" stroke-linejoin="round" stroke-linecap="butt" d="m623.1181 403.2861l37.795288 14.48819" fill-rule="evenodd"/><path fill="#000000" fill-opacity="0.0" d="m292.5853 224.58005l-36.346466 181.88977" fill-rule="evenodd"/><path stroke="#595959" stroke-width="2.0" stroke-linejoin="round" stroke-linecap="butt" d="m292.5853 224.58005l-36.346466 181.88977" fill-rule="evenodd"/><path fill="#000000" fill-opacity="0.0" d="m257.79266 403.29398l197.66928 9.480316" fill-rule="evenodd"/><path stroke="#595959" stroke-width="4.0" stroke-linejoin="round" stroke-linecap="butt" d="m257.79266 403.29398l197.66928 9.480316" fill-rule="evenodd"/><g filter="url(#shadowFilter-ga2dc0fb59a_0_5.1)"><use xlink:href="#ga2dc0fb59a_0_5.1" transform="matrix(1.0 0.0 0.0 1.0 -1.9923895087454888 0.17431154025821236)"/></g><defs><filter id="shadowFilter-ga2dc0fb59a_0_5.1" filterUnits="userSpaceOnUse"><feGaussianBlur in="SourceAlpha" stdDeviation="3.0" result="blur"/><feComponentTransfer in="blur" color-interpolation-filters="sRGB"><feFuncR type="linear" slope="0" intercept="0.8784314"/><feFuncG type="linear" slope="0" intercept="0.4"/><feFuncB type="linear" slope="0" intercept="0.4"/><feFuncA type="linear" slope="0.5" intercept="0"/></feComponentTransfer></filter></defs><g id="ga2dc0fb59a_0_5.1"><path fill="#f6b26b" d="m375.21082 199.3885c10.070038 0 17.375183 0.87312317 21.915405 2.6193695c6.286499 2.444748 11.622253 7.266342 16.007294 14.464752c4.404419 7.179016 6.6066284 17.462479 6.6066284 30.850372c0 9.662567 -1.1253662 17.889343 -3.376068 24.680298c-2.2313232 6.771576 -5.3551636 12.165527 -9.3715515 16.181885c-2.8522034 2.852234 -6.6842346 5.064148 -11.496124 6.635742c-4.7924805 1.5716248 -11.408813 2.3574524 -19.848999 2.3574524l-27.328796 0l0 -97.78987zm-43.83081 -15.1050415l0 127.999954l46.188263 0c7.741699 0 14.590851 -0.7276001 20.547516 -2.1828003c5.9760437 -1.4552307 11.069275 -3.5895386 15.279663 -6.4029236c4.2297974 -2.8327942 8.120056 -6.703644 11.670746 -11.612549c3.5507202 -4.9282837 6.4611206 -11.146881 8.731232 -18.655731c2.2701416 -7.5088806 3.405182 -16.123688 3.405182 -25.844467c0 -11.408829 -1.6783142 -21.546753 -5.0350037 -30.413818c-3.3372803 -8.886459 -8.381989 -16.1819 -15.134155 -21.886307c-5.1805115 -4.423828 -11.437897 -7.4797516 -18.772156 -9.167801c-5.238739 -1.2223663 -12.8349 -1.8335571 -22.788513 -1.8335571z" fill-rule="evenodd"/><path stroke="#595959" stroke-width="1.0" stroke-linejoin="round" stroke-linecap="butt" d="m375.21082 199.3885c10.070038 0 17.375183 0.87312317 21.915405 2.6193695c6.286499 2.444748 11.622253 7.266342 16.007294 14.464752c4.404419 7.179016 6.6066284 17.462479 6.6066284 30.850372c0 9.662567 -1.1253662 17.889343 -3.376068 24.680298c-2.2313232 6.771576 -5.3551636 12.165527 -9.3715515 16.181885c-2.8522034 2.852234 -6.6842346 5.064148 -11.496124 6.635742c-4.7924805 1.5716248 -11.408813 2.3574524 -19.848999 2.3574524l-27.328796 0l0 -97.78987zm-43.83081 -15.1050415l0 127.999954l46.188263 0c7.741699 0 14.590851 -0.7276001 20.547516 -2.1828003c5.9760437 -1.4552307 11.069275 -3.5895386 15.279663 -6.4029236c4.2297974 -2.8327942 8.120056 -6.703644 11.670746 -11.612549c3.5507202 -4.9282837 6.4611206 -11.146881 8.731232 -18.655731c2.2701416 -7.5088806 3.405182 -16.123688 3.405182 -25.844467c0 -11.408829 -1.6783142 -21.546753 -5.0350037 -30.413818c-3.3372803 -8.886459 -8.381989 -16.1819 -15.134155 -21.886307c-5.1805115 -4.423828 -11.437897 -7.4797516 -18.772156 -9.167801c-5.238739 -1.2223663 -12.8349 -1.8335571 -22.788513 -1.8335571z" fill-rule="evenodd"/></g><g filter="url(#shadowFilter-ga2dc0fb59a_0_5.2)"><use xlink:href="#ga2dc0fb59a_0_5.2" transform="matrix(1.0 0.0 0.0 1.0 0.0 2.0)"/></g><defs><filter id="shadowFilter-ga2dc0fb59a_0_5.2" filterUnits="userSpaceOnUse"><feGaussianBlur in="SourceAlpha" stdDeviation="8.5" result="blur"/><feComponentTransfer in="blur" color-interpolation-filters="sRGB"><feFuncR type="linear" slope="0" intercept="1.0"/><feFuncG type="linear" slope="0" intercept="1.0"/><feFuncB type="linear" slope="0" intercept="0.0"/><feFuncA type="linear" slope="0.3" intercept="0"/></feComponentTransfer></filter></defs><g id="ga2dc0fb59a_0_5.2"><path fill="#ff0000" d="m555.6899 184.33202c-9.911865 0 -18.200256 2.838745 -24.865173 8.516251c-6.664856 5.6585083 -10.937256 13.643082 -12.817078 23.95372l15.380493 2.734314c1.1392822 -7.519348 3.7026978 -13.1588745 7.6902466 -16.918564c3.9875488 -3.759674 8.971985 -5.639511 14.953308 -5.639511c6.038269 0 10.965698 1.8513489 14.782349 5.554062c3.8166504 3.7027283 5.7249756 8.37384 5.7249756 14.013367c0 7.1206055 -2.6203613 12.389862 -7.861145 15.8077545c-5.2407837 3.4178925 -11.136597 5.126831 -17.687561 5.126831c-0.62664795 0 -1.4526367 -0.05696106 -2.4779663 -0.17089844l-1.7089844 13.500671c4.3293457 -1.1392975 7.946594 -1.7089386 10.851807 -1.7089386c7.1206055 0 12.987976 2.297577 17.602173 6.892746c4.6141357 4.576187 6.9212036 10.396103 6.9212036 17.459732c0 7.405426 -2.4969482 13.6145935 -7.4908447 18.627502c-4.9749756 5.012909 -11.079712 7.5193787 -18.314209 7.5193787c-6.095276 0 -11.269592 -1.9178162 -15.522949 -5.7534485c-4.234375 -3.8546448 -7.234558 -10.1397705 -9.000427 -18.855377l-15.380554 2.0507202c1.0253906 10.424591 5.164856 18.912354 12.418335 25.463318c7.272522 6.550934 16.405884 9.826416 27.400146 9.826416c12.190491 0 22.273254 -3.797638 30.248352 -11.392975c7.9750366 -7.6142883 11.962585 -16.890076 11.962585 -27.827332c0 -8.088989 -2.0507202 -14.820343 -6.1522217 -20.19403c-4.1014404 -5.3926697 -9.854919 -8.943497 -17.260315 -10.652435c5.696472 -2.6203766 9.997314 -6.1522064 12.902527 -10.595459c2.9052124 -4.443268 4.357788 -9.370728 4.357788 -14.782394c0 -5.6964874 -1.5285034 -11.079666 -4.5856323 -16.149536c-3.038147 -5.06987 -7.433899 -9.06691 -13.187378 -11.991104c-5.753479 -2.9431915 -12.048096 -4.4147797 -18.88385 -4.4147797z" fill-rule="evenodd"/><path stroke="#595959" stroke-width="1.0" stroke-linejoin="round" stroke-linecap="butt" d="m555.6899 184.33202c-9.911865 0 -18.200256 2.838745 -24.865173 8.516251c-6.664856 5.6585083 -10.937256 13.643082 -12.817078 23.95372l15.380493 2.734314c1.1392822 -7.519348 3.7026978 -13.1588745 7.6902466 -16.918564c3.9875488 -3.759674 8.971985 -5.639511 14.953308 -5.639511c6.038269 0 10.965698 1.8513489 14.782349 5.554062c3.8166504 3.7027283 5.7249756 8.37384 5.7249756 14.013367c0 7.1206055 -2.6203613 12.389862 -7.861145 15.8077545c-5.2407837 3.4178925 -11.136597 5.126831 -17.687561 5.126831c-0.62664795 0 -1.4526367 -0.05696106 -2.4779663 -0.17089844l-1.7089844 13.500671c4.3293457 -1.1392975 7.946594 -1.7089386 10.851807 -1.7089386c7.1206055 0 12.987976 2.297577 17.602173 6.892746c4.6141357 4.576187 6.9212036 10.396103 6.9212036 17.459732c0 7.405426 -2.4969482 13.6145935 -7.4908447 18.627502c-4.9749756 5.012909 -11.079712 7.5193787 -18.314209 7.5193787c-6.095276 0 -11.269592 -1.9178162 -15.522949 -5.7534485c-4.234375 -3.8546448 -7.234558 -10.1397705 -9.000427 -18.855377l-15.380554 2.0507202c1.0253906 10.424591 5.164856 18.912354 12.418335 25.463318c7.272522 6.550934 16.405884 9.826416 27.400146 9.826416c12.190491 0 22.273254 -3.797638 30.248352 -11.392975c7.9750366 -7.6142883 11.962585 -16.890076 11.962585 -27.827332c0 -8.088989 -2.0507202 -14.820343 -6.1522217 -20.19403c-4.1014404 -5.3926697 -9.854919 -8.943497 -17.260315 -10.652435c5.696472 -2.6203766 9.997314 -6.1522064 12.902527 -10.595459c2.9052124 -4.443268 4.357788 -9.370728 4.357788 -14.782394c0 -5.6964874 -1.5285034 -11.079666 -4.5856323 -16.149536c-3.038147 -5.06987 -7.433899 -9.06691 -13.187378 -11.991104c-5.753479 -2.9431915 -12.048096 -4.4147797 -18.88385 -4.4147797z" fill-rule="evenodd"/></g></g></svg>