<?xml version="1.0" encoding="utf-8"?>
<svg xmlns="http://www.w3.org/2000/svg" xmlns:xlink="http://www.w3.org/1999/xlink" width="600" height="400" viewBox="0 0 2400 1600">
<defs>
  <clipPath id="clip730">
    <rect x="0" y="0" width="2400" height="1600"/>
  </clipPath>
</defs>
<path clip-path="url(#clip730)" d="
M0 1600 L2400 1600 L2400 0 L0 0  Z
  " fill="#ffffff" fill-rule="evenodd" fill-opacity="1"/>
<defs>
  <clipPath id="clip731">
    <rect x="480" y="0" width="1681" height="1600"/>
  </clipPath>
</defs>
<path clip-path="url(#clip730)" d="
M175.445 1423.18 L2352.76 1423.18 L2352.76 123.472 L175.445 123.472  Z
  " fill="#ffffff" fill-rule="evenodd" fill-opacity="1"/>
<defs>
  <clipPath id="clip732">
    <rect x="175" y="123" width="2178" height="1301"/>
  </clipPath>
</defs>
<polyline clip-path="url(#clip732)" style="stroke:#000000; stroke-linecap:butt; stroke-linejoin:round; stroke-width:2; stroke-opacity:0.1; fill:none" points="
  237.067,1423.18 237.067,123.472 
  "/>
<polyline clip-path="url(#clip732)" style="stroke:#000000; stroke-linecap:butt; stroke-linejoin:round; stroke-width:2; stroke-opacity:0.1; fill:none" points="
  647.881,1423.18 647.881,123.472 
  "/>
<polyline clip-path="url(#clip732)" style="stroke:#000000; stroke-linecap:butt; stroke-linejoin:round; stroke-width:2; stroke-opacity:0.1; fill:none" points="
  1058.69,1423.18 1058.69,123.472 
  "/>
<polyline clip-path="url(#clip732)" style="stroke:#000000; stroke-linecap:butt; stroke-linejoin:round; stroke-width:2; stroke-opacity:0.1; fill:none" points="
  1469.51,1423.18 1469.51,123.472 
  "/>
<polyline clip-path="url(#clip732)" style="stroke:#000000; stroke-linecap:butt; stroke-linejoin:round; stroke-width:2; stroke-opacity:0.1; fill:none" points="
  1880.32,1423.18 1880.32,123.472 
  "/>
<polyline clip-path="url(#clip732)" style="stroke:#000000; stroke-linecap:butt; stroke-linejoin:round; stroke-width:2; stroke-opacity:0.1; fill:none" points="
  2291.13,1423.18 2291.13,123.472 
  "/>
<polyline clip-path="url(#clip730)" style="stroke:#000000; stroke-linecap:butt; stroke-linejoin:round; stroke-width:4; stroke-opacity:1; fill:none" points="
  175.445,1423.18 2352.76,1423.18 
  "/>
<polyline clip-path="url(#clip730)" style="stroke:#000000; stroke-linecap:butt; stroke-linejoin:round; stroke-width:4; stroke-opacity:1; fill:none" points="
  237.067,1423.18 237.067,1404.28 
  "/>
<polyline clip-path="url(#clip730)" style="stroke:#000000; stroke-linecap:butt; stroke-linejoin:round; stroke-width:4; stroke-opacity:1; fill:none" points="
  647.881,1423.18 647.881,1404.28 
  "/>
<polyline clip-path="url(#clip730)" style="stroke:#000000; stroke-linecap:butt; stroke-linejoin:round; stroke-width:4; stroke-opacity:1; fill:none" points="
  1058.69,1423.18 1058.69,1404.28 
  "/>
<polyline clip-path="url(#clip730)" style="stroke:#000000; stroke-linecap:butt; stroke-linejoin:round; stroke-width:4; stroke-opacity:1; fill:none" points="
  1469.51,1423.18 1469.51,1404.28 
  "/>
<polyline clip-path="url(#clip730)" style="stroke:#000000; stroke-linecap:butt; stroke-linejoin:round; stroke-width:4; stroke-opacity:1; fill:none" points="
  1880.32,1423.18 1880.32,1404.28 
  "/>
<polyline clip-path="url(#clip730)" style="stroke:#000000; stroke-linecap:butt; stroke-linejoin:round; stroke-width:4; stroke-opacity:1; fill:none" points="
  2291.13,1423.18 2291.13,1404.28 
  "/>
<path clip-path="url(#clip730)" d="M215.065 1454.1 Q211.454 1454.1 209.625 1457.66 Q207.82 1461.2 207.82 1468.33 Q207.82 1475.44 209.625 1479.01 Q211.454 1482.55 215.065 1482.55 Q218.699 1482.55 220.505 1479.01 Q222.333 1475.44 222.333 1468.33 Q222.333 1461.2 220.505 1457.66 Q218.699 1454.1 215.065 1454.1 M215.065 1450.39 Q220.875 1450.39 223.931 1455 Q227.009 1459.58 227.009 1468.33 Q227.009 1477.06 223.931 1481.67 Q220.875 1486.25 215.065 1486.25 Q209.255 1486.25 206.176 1481.67 Q203.121 1477.06 203.121 1468.33 Q203.121 1459.58 206.176 1455 Q209.255 1450.39 215.065 1450.39 Z" fill="#000000" fill-rule="evenodd" fill-opacity="1" /><path clip-path="url(#clip730)" d="M235.227 1479.7 L240.111 1479.7 L240.111 1485.58 L235.227 1485.58 L235.227 1479.7 Z" fill="#000000" fill-rule="evenodd" fill-opacity="1" /><path clip-path="url(#clip730)" d="M251.106 1481.64 L258.745 1481.64 L258.745 1455.28 L250.435 1456.95 L250.435 1452.69 L258.699 1451.02 L263.375 1451.02 L263.375 1481.64 L271.014 1481.64 L271.014 1485.58 L251.106 1485.58 L251.106 1481.64 Z" fill="#000000" fill-rule="evenodd" fill-opacity="1" /><path clip-path="url(#clip730)" d="M626.064 1454.1 Q622.452 1454.1 620.624 1457.66 Q618.818 1461.2 618.818 1468.33 Q618.818 1475.44 620.624 1479.01 Q622.452 1482.55 626.064 1482.55 Q629.698 1482.55 631.503 1479.01 Q633.332 1475.44 633.332 1468.33 Q633.332 1461.2 631.503 1457.66 Q629.698 1454.1 626.064 1454.1 M626.064 1450.39 Q631.874 1450.39 634.929 1455 Q638.008 1459.58 638.008 1468.33 Q638.008 1477.06 634.929 1481.67 Q631.874 1486.25 626.064 1486.25 Q620.253 1486.25 617.175 1481.67 Q614.119 1477.06 614.119 1468.33 Q614.119 1459.58 617.175 1455 Q620.253 1450.39 626.064 1450.39 Z" fill="#000000" fill-rule="evenodd" fill-opacity="1" /><path clip-path="url(#clip730)" d="M646.225 1479.7 L651.11 1479.7 L651.11 1485.58 L646.225 1485.58 L646.225 1479.7 Z" fill="#000000" fill-rule="evenodd" fill-opacity="1" /><path clip-path="url(#clip730)" d="M665.323 1481.64 L681.642 1481.64 L681.642 1485.58 L659.698 1485.58 L659.698 1481.64 Q662.36 1478.89 666.943 1474.26 Q671.549 1469.61 672.73 1468.27 Q674.975 1465.74 675.855 1464.01 Q676.758 1462.25 676.758 1460.56 Q676.758 1457.8 674.813 1456.07 Q672.892 1454.33 669.79 1454.33 Q667.591 1454.33 665.137 1455.09 Q662.707 1455.86 659.929 1457.41 L659.929 1452.69 Q662.753 1451.55 665.207 1450.97 Q667.661 1450.39 669.698 1450.39 Q675.068 1450.39 678.262 1453.08 Q681.457 1455.77 681.457 1460.26 Q681.457 1462.39 680.647 1464.31 Q679.86 1466.2 677.753 1468.8 Q677.174 1469.47 674.073 1472.69 Q670.971 1475.88 665.323 1481.64 Z" fill="#000000" fill-rule="evenodd" fill-opacity="1" /><path clip-path="url(#clip730)" d="M1036.4 1454.1 Q1032.79 1454.1 1030.96 1457.66 Q1029.16 1461.2 1029.16 1468.33 Q1029.16 1475.44 1030.96 1479.01 Q1032.79 1482.55 1036.4 1482.55 Q1040.04 1482.55 1041.84 1479.01 Q1043.67 1475.44 1043.67 1468.33 Q1043.67 1461.2 1041.84 1457.66 Q1040.04 1454.1 1036.4 1454.1 M1036.4 1450.39 Q1042.21 1450.39 1045.27 1455 Q1048.35 1459.58 1048.35 1468.33 Q1048.35 1477.06 1045.27 1481.67 Q1042.21 1486.25 1036.4 1486.25 Q1030.59 1486.25 1027.51 1481.67 Q1024.46 1477.06 1024.46 1468.33 Q1024.46 1459.58 1027.51 1455 Q1030.59 1450.39 1036.4 1450.39 Z" fill="#000000" fill-rule="evenodd" fill-opacity="1" /><path clip-path="url(#clip730)" d="M1056.56 1479.7 L1061.45 1479.7 L1061.45 1485.58 L1056.56 1485.58 L1056.56 1479.7 Z" fill="#000000" fill-rule="evenodd" fill-opacity="1" /><path clip-path="url(#clip730)" d="M1085.8 1466.95 Q1089.16 1467.66 1091.03 1469.93 Q1092.93 1472.2 1092.93 1475.53 Q1092.93 1480.65 1089.41 1483.45 Q1085.89 1486.25 1079.41 1486.25 Q1077.24 1486.25 1074.92 1485.81 Q1072.63 1485.39 1070.18 1484.54 L1070.18 1480.02 Q1072.12 1481.16 1074.43 1481.74 Q1076.75 1482.32 1079.27 1482.32 Q1083.67 1482.32 1085.96 1480.58 Q1088.28 1478.84 1088.28 1475.53 Q1088.28 1472.48 1086.12 1470.77 Q1083.99 1469.03 1080.18 1469.03 L1076.15 1469.03 L1076.15 1465.19 L1080.36 1465.19 Q1083.81 1465.19 1085.64 1463.82 Q1087.47 1462.43 1087.47 1459.84 Q1087.47 1457.18 1085.57 1455.77 Q1083.69 1454.33 1080.18 1454.33 Q1078.25 1454.33 1076.05 1454.75 Q1073.86 1455.16 1071.22 1456.04 L1071.22 1451.88 Q1073.88 1451.14 1076.19 1450.77 Q1078.53 1450.39 1080.59 1450.39 Q1085.92 1450.39 1089.02 1452.83 Q1092.12 1455.23 1092.12 1459.35 Q1092.12 1462.22 1090.48 1464.21 Q1088.83 1466.18 1085.8 1466.95 Z" fill="#000000" fill-rule="evenodd" fill-opacity="1" /><path clip-path="url(#clip730)" d="M1446.65 1454.1 Q1443.04 1454.1 1441.21 1457.66 Q1439.4 1461.2 1439.4 1468.33 Q1439.4 1475.44 1441.21 1479.01 Q1443.04 1482.55 1446.65 1482.55 Q1450.28 1482.55 1452.09 1479.01 Q1453.92 1475.44 1453.92 1468.33 Q1453.92 1461.2 1452.09 1457.66 Q1450.28 1454.1 1446.65 1454.1 M1446.65 1450.39 Q1452.46 1450.39 1455.51 1455 Q1458.59 1459.58 1458.59 1468.33 Q1458.59 1477.06 1455.51 1481.67 Q1452.46 1486.25 1446.65 1486.25 Q1440.84 1486.25 1437.76 1481.67 Q1434.7 1477.06 1434.7 1468.33 Q1434.7 1459.58 1437.76 1455 Q1440.84 1450.39 1446.65 1450.39 Z" fill="#000000" fill-rule="evenodd" fill-opacity="1" /><path clip-path="url(#clip730)" d="M1466.81 1479.7 L1471.69 1479.7 L1471.69 1485.58 L1466.81 1485.58 L1466.81 1479.7 Z" fill="#000000" fill-rule="evenodd" fill-opacity="1" /><path clip-path="url(#clip730)" d="M1494.73 1455.09 L1482.92 1473.54 L1494.73 1473.54 L1494.73 1455.09 M1493.5 1451.02 L1499.38 1451.02 L1499.38 1473.54 L1504.31 1473.54 L1504.31 1477.43 L1499.38 1477.43 L1499.38 1485.58 L1494.73 1485.58 L1494.73 1477.43 L1479.13 1477.43 L1479.13 1472.92 L1493.5 1451.02 Z" fill="#000000" fill-rule="evenodd" fill-opacity="1" /><path clip-path="url(#clip730)" d="M1858.2 1454.1 Q1854.59 1454.1 1852.76 1457.66 Q1850.96 1461.2 1850.96 1468.33 Q1850.96 1475.44 1852.76 1479.01 Q1854.59 1482.55 1858.2 1482.55 Q1861.84 1482.55 1863.64 1479.01 Q1865.47 1475.44 1865.47 1468.33 Q1865.47 1461.2 1863.64 1457.66 Q1861.84 1454.1 1858.2 1454.1 M1858.2 1450.39 Q1864.01 1450.39 1867.07 1455 Q1870.15 1459.58 1870.15 1468.33 Q1870.15 1477.06 1867.07 1481.67 Q1864.01 1486.25 1858.2 1486.25 Q1852.39 1486.25 1849.31 1481.67 Q1846.26 1477.06 1846.26 1468.33 Q1846.26 1459.58 1849.31 1455 Q1852.39 1450.39 1858.2 1450.39 Z" fill="#000000" fill-rule="evenodd" fill-opacity="1" /><path clip-path="url(#clip730)" d="M1878.36 1479.7 L1883.25 1479.7 L1883.25 1485.58 L1878.36 1485.58 L1878.36 1479.7 Z" fill="#000000" fill-rule="evenodd" fill-opacity="1" /><path clip-path="url(#clip730)" d="M1893.48 1451.02 L1911.84 1451.02 L1911.84 1454.96 L1897.76 1454.96 L1897.76 1463.43 Q1898.78 1463.08 1899.8 1462.92 Q1900.82 1462.73 1901.84 1462.73 Q1907.62 1462.73 1911 1465.9 Q1914.38 1469.08 1914.38 1474.49 Q1914.38 1480.07 1910.91 1483.17 Q1907.44 1486.25 1901.12 1486.25 Q1898.94 1486.25 1896.67 1485.88 Q1894.43 1485.51 1892.02 1484.77 L1892.02 1480.07 Q1894.11 1481.2 1896.33 1481.76 Q1898.55 1482.32 1901.03 1482.32 Q1905.03 1482.32 1907.37 1480.21 Q1909.71 1478.1 1909.71 1474.49 Q1909.71 1470.88 1907.37 1468.77 Q1905.03 1466.67 1901.03 1466.67 Q1899.15 1466.67 1897.28 1467.08 Q1895.42 1467.5 1893.48 1468.38 L1893.48 1451.02 Z" fill="#000000" fill-rule="evenodd" fill-opacity="1" /><path clip-path="url(#clip730)" d="M2268.44 1454.1 Q2264.83 1454.1 2263 1457.66 Q2261.19 1461.2 2261.19 1468.33 Q2261.19 1475.44 2263 1479.01 Q2264.83 1482.55 2268.44 1482.55 Q2272.07 1482.55 2273.88 1479.01 Q2275.71 1475.44 2275.71 1468.33 Q2275.71 1461.2 2273.88 1457.66 Q2272.07 1454.1 2268.44 1454.1 M2268.44 1450.39 Q2274.25 1450.39 2277.3 1455 Q2280.38 1459.58 2280.38 1468.33 Q2280.38 1477.06 2277.3 1481.67 Q2274.25 1486.25 2268.44 1486.25 Q2262.63 1486.25 2259.55 1481.67 Q2256.49 1477.06 2256.49 1468.33 Q2256.49 1459.58 2259.55 1455 Q2262.63 1450.39 2268.44 1450.39 Z" fill="#000000" fill-rule="evenodd" fill-opacity="1" /><path clip-path="url(#clip730)" d="M2288.6 1479.7 L2293.48 1479.7 L2293.48 1485.58 L2288.6 1485.58 L2288.6 1479.7 Z" fill="#000000" fill-rule="evenodd" fill-opacity="1" /><path clip-path="url(#clip730)" d="M2314.25 1466.44 Q2311.1 1466.44 2309.25 1468.59 Q2307.42 1470.74 2307.42 1474.49 Q2307.42 1478.22 2309.25 1480.39 Q2311.1 1482.55 2314.25 1482.55 Q2317.4 1482.55 2319.22 1480.39 Q2321.08 1478.22 2321.08 1474.49 Q2321.08 1470.74 2319.22 1468.59 Q2317.4 1466.44 2314.25 1466.44 M2323.53 1451.78 L2323.53 1456.04 Q2321.77 1455.21 2319.96 1454.77 Q2318.18 1454.33 2316.42 1454.33 Q2311.79 1454.33 2309.34 1457.45 Q2306.91 1460.58 2306.56 1466.9 Q2307.93 1464.89 2309.99 1463.82 Q2312.05 1462.73 2314.52 1462.73 Q2319.73 1462.73 2322.74 1465.9 Q2325.77 1469.05 2325.77 1474.49 Q2325.77 1479.82 2322.63 1483.03 Q2319.48 1486.25 2314.25 1486.25 Q2308.25 1486.25 2305.08 1481.67 Q2301.91 1477.06 2301.91 1468.33 Q2301.91 1460.14 2305.8 1455.28 Q2309.69 1450.39 2316.24 1450.39 Q2318 1450.39 2319.78 1450.74 Q2321.59 1451.09 2323.53 1451.78 Z" fill="#000000" fill-rule="evenodd" fill-opacity="1" /><path clip-path="url(#clip730)" d="M977.962 1520.52 L1018.16 1520.52 L1018.16 1525.93 L1001.29 1525.93 L1001.29 1568.04 L994.831 1568.04 L994.831 1525.93 L977.962 1525.93 L977.962 1520.52 Z" fill="#000000" fill-rule="evenodd" fill-opacity="1" /><path clip-path="url(#clip730)" d="M1022.11 1532.4 L1027.96 1532.4 L1027.96 1568.04 L1022.11 1568.04 L1022.11 1532.4 M1022.11 1518.52 L1027.96 1518.52 L1027.96 1525.93 L1022.11 1525.93 L1022.11 1518.52 Z" fill="#000000" fill-rule="evenodd" fill-opacity="1" /><path clip-path="url(#clip730)" d="M1067.97 1539.24 Q1070.17 1535.29 1073.22 1533.41 Q1076.28 1531.54 1080.42 1531.54 Q1085.99 1531.54 1089.01 1535.45 Q1092.04 1539.33 1092.04 1546.53 L1092.04 1568.04 L1086.15 1568.04 L1086.15 1546.72 Q1086.15 1541.59 1084.33 1539.11 Q1082.52 1536.63 1078.79 1536.63 Q1074.24 1536.63 1071.6 1539.65 Q1068.96 1542.68 1068.96 1547.9 L1068.96 1568.04 L1063.07 1568.04 L1063.07 1546.72 Q1063.07 1541.56 1061.26 1539.11 Q1059.44 1536.63 1055.66 1536.63 Q1051.17 1536.63 1048.53 1539.68 Q1045.88 1542.71 1045.88 1547.9 L1045.88 1568.04 L1040 1568.04 L1040 1532.4 L1045.88 1532.4 L1045.88 1537.93 Q1047.89 1534.66 1050.69 1533.1 Q1053.49 1531.54 1057.34 1531.54 Q1061.23 1531.54 1063.93 1533.51 Q1066.67 1535.48 1067.97 1539.24 Z" fill="#000000" fill-rule="evenodd" fill-opacity="1" /><path clip-path="url(#clip730)" d="M1134.21 1548.76 L1134.21 1551.62 L1107.28 1551.62 Q1107.66 1557.67 1110.91 1560.85 Q1114.19 1564 1120.01 1564 Q1123.39 1564 1126.54 1563.17 Q1129.72 1562.35 1132.84 1560.69 L1132.84 1566.23 Q1129.69 1567.57 1126.38 1568.27 Q1123.07 1568.97 1119.66 1568.97 Q1111.13 1568.97 1106.14 1564 Q1101.17 1559.04 1101.17 1550.57 Q1101.17 1541.82 1105.88 1536.69 Q1110.62 1531.54 1118.64 1531.54 Q1125.84 1531.54 1130.01 1536.18 Q1134.21 1540.8 1134.21 1548.76 M1128.35 1547.04 Q1128.29 1542.23 1125.65 1539.37 Q1123.04 1536.5 1118.71 1536.5 Q1113.81 1536.5 1110.85 1539.27 Q1107.92 1542.04 1107.47 1547.07 L1128.35 1547.04 Z" fill="#000000" fill-rule="evenodd" fill-opacity="1" /><path clip-path="url(#clip730)" d="M1178.61 1518.58 Q1174.34 1525.9 1172.28 1533.06 Q1170.21 1540.23 1170.21 1547.58 Q1170.21 1554.93 1172.28 1562.16 Q1174.38 1569.35 1178.61 1576.64 L1173.52 1576.64 Q1168.74 1569.16 1166.36 1561.93 Q1164 1554.71 1164 1547.58 Q1164 1540.48 1166.36 1533.29 Q1168.71 1526.09 1173.52 1518.58 L1178.61 1518.58 Z" fill="#000000" fill-rule="evenodd" fill-opacity="1" /><path clip-path="url(#clip730)" d="M1189.97 1532.4 L1195.83 1532.4 L1195.83 1568.04 L1189.97 1568.04 L1189.97 1532.4 M1189.97 1518.52 L1195.83 1518.52 L1195.83 1525.93 L1189.97 1525.93 L1189.97 1518.52 Z" fill="#000000" fill-rule="evenodd" fill-opacity="1" /><path clip-path="url(#clip730)" d="M1237.71 1546.53 L1237.71 1568.04 L1231.86 1568.04 L1231.86 1546.72 Q1231.86 1541.66 1229.88 1539.14 Q1227.91 1536.63 1223.96 1536.63 Q1219.22 1536.63 1216.49 1539.65 Q1213.75 1542.68 1213.75 1547.9 L1213.75 1568.04 L1207.86 1568.04 L1207.86 1532.4 L1213.75 1532.4 L1213.75 1537.93 Q1215.85 1534.72 1218.68 1533.13 Q1221.55 1531.54 1225.27 1531.54 Q1231.41 1531.54 1234.56 1535.36 Q1237.71 1539.14 1237.71 1546.53 Z" fill="#000000" fill-rule="evenodd" fill-opacity="1" /><path clip-path="url(#clip730)" d="M1292.84 1533.45 L1292.84 1538.98 Q1290.36 1537.71 1287.69 1537.07 Q1285.01 1536.44 1282.15 1536.44 Q1277.79 1536.44 1275.59 1537.77 Q1273.43 1539.11 1273.43 1541.79 Q1273.43 1543.82 1274.99 1545 Q1276.55 1546.15 1281.26 1547.2 L1283.26 1547.64 Q1289.5 1548.98 1292.11 1551.43 Q1294.75 1553.85 1294.75 1558.21 Q1294.75 1563.17 1290.8 1566.07 Q1286.89 1568.97 1280.01 1568.97 Q1277.15 1568.97 1274.03 1568.39 Q1270.94 1567.85 1267.51 1566.74 L1267.51 1560.69 Q1270.75 1562.38 1273.9 1563.24 Q1277.05 1564.07 1280.14 1564.07 Q1284.28 1564.07 1286.51 1562.66 Q1288.74 1561.23 1288.74 1558.65 Q1288.74 1556.27 1287.11 1554.99 Q1285.52 1553.72 1280.08 1552.54 L1278.04 1552.07 Q1272.6 1550.92 1270.18 1548.56 Q1267.76 1546.18 1267.76 1542.04 Q1267.76 1537.01 1271.33 1534.27 Q1274.89 1531.54 1281.45 1531.54 Q1284.69 1531.54 1287.56 1532.01 Q1290.42 1532.49 1292.84 1533.45 Z" fill="#000000" fill-rule="evenodd" fill-opacity="1" /><path clip-path="url(#clip730)" d="M1334.57 1548.76 L1334.57 1551.62 L1307.64 1551.62 Q1308.02 1557.67 1311.27 1560.85 Q1314.55 1564 1320.37 1564 Q1323.75 1564 1326.9 1563.17 Q1330.08 1562.35 1333.2 1560.69 L1333.2 1566.23 Q1330.05 1567.57 1326.74 1568.27 Q1323.43 1568.97 1320.02 1568.97 Q1311.49 1568.97 1306.5 1564 Q1301.53 1559.04 1301.53 1550.57 Q1301.53 1541.82 1306.24 1536.69 Q1310.98 1531.54 1319 1531.54 Q1326.2 1531.54 1330.37 1536.18 Q1334.57 1540.8 1334.57 1548.76 M1328.71 1547.04 Q1328.65 1542.23 1326.01 1539.37 Q1323.4 1536.5 1319.07 1536.5 Q1314.17 1536.5 1311.21 1539.27 Q1308.28 1542.04 1307.83 1547.07 L1328.71 1547.04 Z" fill="#000000" fill-rule="evenodd" fill-opacity="1" /><path clip-path="url(#clip730)" d="M1369.83 1533.76 L1369.83 1539.24 Q1367.35 1537.87 1364.84 1537.2 Q1362.36 1536.5 1359.81 1536.5 Q1354.11 1536.5 1350.96 1540.13 Q1347.81 1543.73 1347.81 1550.25 Q1347.81 1556.78 1350.96 1560.4 Q1354.11 1564 1359.81 1564 Q1362.36 1564 1364.84 1563.33 Q1367.35 1562.63 1369.83 1561.26 L1369.83 1566.68 Q1367.38 1567.82 1364.74 1568.39 Q1362.13 1568.97 1359.17 1568.97 Q1351.12 1568.97 1346.38 1563.91 Q1341.63 1558.85 1341.63 1550.25 Q1341.63 1541.53 1346.41 1536.53 Q1351.22 1531.54 1359.55 1531.54 Q1362.26 1531.54 1364.84 1532.11 Q1367.42 1532.65 1369.83 1533.76 Z" fill="#000000" fill-rule="evenodd" fill-opacity="1" /><path clip-path="url(#clip730)" d="M1393.83 1536.5 Q1389.12 1536.5 1386.39 1540.19 Q1383.65 1543.85 1383.65 1550.25 Q1383.65 1556.65 1386.35 1560.34 Q1389.09 1564 1393.83 1564 Q1398.51 1564 1401.25 1560.31 Q1403.99 1556.62 1403.99 1550.25 Q1403.99 1543.92 1401.25 1540.23 Q1398.51 1536.5 1393.83 1536.5 M1393.83 1531.54 Q1401.47 1531.54 1405.83 1536.5 Q1410.19 1541.47 1410.19 1550.25 Q1410.19 1559 1405.83 1564 Q1401.47 1568.97 1393.83 1568.97 Q1386.16 1568.97 1381.8 1564 Q1377.47 1559 1377.47 1550.25 Q1377.47 1541.47 1381.8 1536.5 Q1386.16 1531.54 1393.83 1531.54 Z" fill="#000000" fill-rule="evenodd" fill-opacity="1" /><path clip-path="url(#clip730)" d="M1449.53 1546.53 L1449.53 1568.04 L1443.68 1568.04 L1443.68 1546.72 Q1443.68 1541.66 1441.7 1539.14 Q1439.73 1536.63 1435.78 1536.63 Q1431.04 1536.63 1428.3 1539.65 Q1425.57 1542.68 1425.57 1547.9 L1425.57 1568.04 L1419.68 1568.04 L1419.68 1532.4 L1425.57 1532.4 L1425.57 1537.93 Q1427.67 1534.72 1430.5 1533.13 Q1433.36 1531.54 1437.09 1531.54 Q1443.23 1531.54 1446.38 1535.36 Q1449.53 1539.14 1449.53 1546.53 Z" fill="#000000" fill-rule="evenodd" fill-opacity="1" /><path clip-path="url(#clip730)" d="M1484.67 1537.81 L1484.67 1518.52 L1490.53 1518.52 L1490.53 1568.04 L1484.67 1568.04 L1484.67 1562.7 Q1482.83 1565.88 1479.99 1567.44 Q1477.19 1568.97 1473.25 1568.97 Q1466.78 1568.97 1462.71 1563.81 Q1458.67 1558.65 1458.67 1550.25 Q1458.67 1541.85 1462.71 1536.69 Q1466.78 1531.54 1473.25 1531.54 Q1477.19 1531.54 1479.99 1533.1 Q1482.83 1534.62 1484.67 1537.81 M1464.72 1550.25 Q1464.72 1556.71 1467.36 1560.4 Q1470.03 1564.07 1474.68 1564.07 Q1479.33 1564.07 1482 1560.4 Q1484.67 1556.71 1484.67 1550.25 Q1484.67 1543.79 1482 1540.13 Q1479.33 1536.44 1474.68 1536.44 Q1470.03 1536.44 1467.36 1540.13 Q1464.72 1543.79 1464.72 1550.25 Z" fill="#000000" fill-rule="evenodd" fill-opacity="1" /><path clip-path="url(#clip730)" d="M1525.32 1533.45 L1525.32 1538.98 Q1522.83 1537.71 1520.16 1537.07 Q1517.49 1536.44 1514.62 1536.44 Q1510.26 1536.44 1508.07 1537.77 Q1505.9 1539.11 1505.9 1541.79 Q1505.9 1543.82 1507.46 1545 Q1509.02 1546.15 1513.73 1547.2 L1515.74 1547.64 Q1521.98 1548.98 1524.59 1551.43 Q1527.23 1553.85 1527.23 1558.21 Q1527.23 1563.17 1523.28 1566.07 Q1519.37 1568.97 1512.49 1568.97 Q1509.63 1568.97 1506.51 1568.39 Q1503.42 1567.85 1499.98 1566.74 L1499.98 1560.69 Q1503.23 1562.38 1506.38 1563.24 Q1509.53 1564.07 1512.62 1564.07 Q1516.76 1564.07 1518.98 1562.66 Q1521.21 1561.23 1521.21 1558.65 Q1521.21 1556.27 1519.59 1554.99 Q1518 1553.72 1512.55 1552.54 L1510.52 1552.07 Q1505.07 1550.92 1502.66 1548.56 Q1500.24 1546.18 1500.24 1542.04 Q1500.24 1537.01 1503.8 1534.27 Q1507.37 1531.54 1513.92 1531.54 Q1517.17 1531.54 1520.03 1532.01 Q1522.9 1532.49 1525.32 1533.45 Z" fill="#000000" fill-rule="evenodd" fill-opacity="1" /><path clip-path="url(#clip730)" d="M1535.63 1518.58 L1540.72 1518.58 Q1545.5 1526.09 1547.85 1533.29 Q1550.24 1540.48 1550.24 1547.58 Q1550.24 1554.71 1547.85 1561.93 Q1545.5 1569.16 1540.72 1576.64 L1535.63 1576.64 Q1539.86 1569.35 1541.93 1562.16 Q1544.03 1554.93 1544.03 1547.58 Q1544.03 1540.23 1541.93 1533.06 Q1539.86 1525.9 1535.63 1518.58 Z" fill="#000000" fill-rule="evenodd" fill-opacity="1" /><polyline clip-path="url(#clip732)" style="stroke:#000000; stroke-linecap:butt; stroke-linejoin:round; stroke-width:2; stroke-opacity:0.1; fill:none" points="
  175.445,1250.16 2352.76,1250.16 
  "/>
<polyline clip-path="url(#clip732)" style="stroke:#000000; stroke-linecap:butt; stroke-linejoin:round; stroke-width:2; stroke-opacity:0.1; fill:none" points="
  175.445,977.683 2352.76,977.683 
  "/>
<polyline clip-path="url(#clip732)" style="stroke:#000000; stroke-linecap:butt; stroke-linejoin:round; stroke-width:2; stroke-opacity:0.1; fill:none" points="
  175.445,705.207 2352.76,705.207 
  "/>
<polyline clip-path="url(#clip732)" style="stroke:#000000; stroke-linecap:butt; stroke-linejoin:round; stroke-width:2; stroke-opacity:0.1; fill:none" points="
  175.445,432.732 2352.76,432.732 
  "/>
<polyline clip-path="url(#clip732)" style="stroke:#000000; stroke-linecap:butt; stroke-linejoin:round; stroke-width:2; stroke-opacity:0.1; fill:none" points="
  175.445,160.256 2352.76,160.256 
  "/>
<polyline clip-path="url(#clip730)" style="stroke:#000000; stroke-linecap:butt; stroke-linejoin:round; stroke-width:4; stroke-opacity:1; fill:none" points="
  175.445,1423.18 175.445,123.472 
  "/>
<polyline clip-path="url(#clip730)" style="stroke:#000000; stroke-linecap:butt; stroke-linejoin:round; stroke-width:4; stroke-opacity:1; fill:none" points="
  175.445,1250.16 194.343,1250.16 
  "/>
<polyline clip-path="url(#clip730)" style="stroke:#000000; stroke-linecap:butt; stroke-linejoin:round; stroke-width:4; stroke-opacity:1; fill:none" points="
  175.445,977.683 194.343,977.683 
  "/>
<polyline clip-path="url(#clip730)" style="stroke:#000000; stroke-linecap:butt; stroke-linejoin:round; stroke-width:4; stroke-opacity:1; fill:none" points="
  175.445,705.207 194.343,705.207 
  "/>
<polyline clip-path="url(#clip730)" style="stroke:#000000; stroke-linecap:butt; stroke-linejoin:round; stroke-width:4; stroke-opacity:1; fill:none" points="
  175.445,432.732 194.343,432.732 
  "/>
<polyline clip-path="url(#clip730)" style="stroke:#000000; stroke-linecap:butt; stroke-linejoin:round; stroke-width:4; stroke-opacity:1; fill:none" points="
  175.445,160.256 194.343,160.256 
  "/>
<path clip-path="url(#clip730)" d="M119.538 1263.5 L127.177 1263.5 L127.177 1237.14 L118.867 1238.8 L118.867 1234.54 L127.13 1232.88 L131.806 1232.88 L131.806 1263.5 L139.445 1263.5 L139.445 1267.44 L119.538 1267.44 L119.538 1263.5 Z" fill="#000000" fill-rule="evenodd" fill-opacity="1" /><path clip-path="url(#clip730)" d="M123.126 991.027 L139.445 991.027 L139.445 994.963 L117.501 994.963 L117.501 991.027 Q120.163 988.273 124.746 983.643 Q129.353 978.99 130.533 977.648 Q132.779 975.125 133.658 973.389 Q134.561 971.629 134.561 969.94 Q134.561 967.185 132.617 965.449 Q130.695 963.713 127.593 963.713 Q125.394 963.713 122.941 964.477 Q120.51 965.24 117.732 966.791 L117.732 962.069 Q120.556 960.935 123.01 960.356 Q125.464 959.778 127.501 959.778 Q132.871 959.778 136.066 962.463 Q139.26 965.148 139.26 969.639 Q139.26 971.768 138.45 973.69 Q137.663 975.588 135.556 978.18 Q134.978 978.852 131.876 982.069 Q128.774 985.264 123.126 991.027 Z" fill="#000000" fill-rule="evenodd" fill-opacity="1" /><path clip-path="url(#clip730)" d="M132.316 703.853 Q135.672 704.571 137.547 706.839 Q139.445 709.108 139.445 712.441 Q139.445 717.557 135.927 720.358 Q132.408 723.158 125.927 723.158 Q123.751 723.158 121.436 722.719 Q119.144 722.302 116.691 721.445 L116.691 716.932 Q118.635 718.066 120.95 718.645 Q123.265 719.223 125.788 719.223 Q130.186 719.223 132.478 717.487 Q134.792 715.751 134.792 712.441 Q134.792 709.385 132.64 707.672 Q130.51 705.936 126.691 705.936 L122.663 705.936 L122.663 702.094 L126.876 702.094 Q130.325 702.094 132.154 700.728 Q133.982 699.339 133.982 696.747 Q133.982 694.085 132.084 692.672 Q130.209 691.237 126.691 691.237 Q124.769 691.237 122.57 691.654 Q120.371 692.071 117.732 692.95 L117.732 688.784 Q120.394 688.043 122.709 687.673 Q125.047 687.302 127.107 687.302 Q132.431 687.302 135.533 689.733 Q138.635 692.14 138.635 696.26 Q138.635 699.131 136.992 701.122 Q135.348 703.089 132.316 703.853 Z" fill="#000000" fill-rule="evenodd" fill-opacity="1" /><path clip-path="url(#clip730)" d="M129.862 419.526 L118.056 437.975 L129.862 437.975 L129.862 419.526 M128.635 415.452 L134.515 415.452 L134.515 437.975 L139.445 437.975 L139.445 441.864 L134.515 441.864 L134.515 450.012 L129.862 450.012 L129.862 441.864 L114.26 441.864 L114.26 437.35 L128.635 415.452 Z" fill="#000000" fill-rule="evenodd" fill-opacity="1" /><path clip-path="url(#clip730)" d="M118.543 142.976 L136.899 142.976 L136.899 146.911 L122.825 146.911 L122.825 155.384 Q123.843 155.036 124.862 154.874 Q125.88 154.689 126.899 154.689 Q132.686 154.689 136.066 157.86 Q139.445 161.032 139.445 166.448 Q139.445 172.027 135.973 175.129 Q132.501 178.208 126.181 178.208 Q124.005 178.208 121.737 177.837 Q119.492 177.467 117.084 176.726 L117.084 172.027 Q119.168 173.161 121.39 173.717 Q123.612 174.272 126.089 174.272 Q130.093 174.272 132.431 172.166 Q134.769 170.059 134.769 166.448 Q134.769 162.837 132.431 160.731 Q130.093 158.624 126.089 158.624 Q124.214 158.624 122.339 159.041 Q120.487 159.458 118.543 160.337 L118.543 142.976 Z" fill="#000000" fill-rule="evenodd" fill-opacity="1" /><path clip-path="url(#clip730)" d="M21.7677 1121.75 L39.6235 1121.75 L39.6235 1113.67 Q39.6235 1109.18 37.3 1106.73 Q34.9765 1104.28 30.6797 1104.28 Q26.4147 1104.28 24.0912 1106.73 Q21.7677 1109.18 21.7677 1113.67 L21.7677 1121.75 M16.4842 1128.18 L16.4842 1113.67 Q16.4842 1105.68 20.1126 1101.61 Q23.7092 1097.5 30.6797 1097.5 Q37.7138 1097.5 41.3104 1101.61 Q44.907 1105.68 44.907 1113.67 L44.907 1121.75 L64.0042 1121.75 L64.0042 1128.18 L16.4842 1128.18 Z" fill="#000000" fill-rule="evenodd" fill-opacity="1" /><path clip-path="url(#clip730)" d="M28.3562 1090.56 L28.3562 1084.7 L64.0042 1084.7 L64.0042 1090.56 L28.3562 1090.56 M14.479 1090.56 L14.479 1084.7 L21.895 1084.7 L21.895 1090.56 L14.479 1090.56 Z" fill="#000000" fill-rule="evenodd" fill-opacity="1" /><path clip-path="url(#clip730)" d="M28.3562 1042.82 L45.7028 1055.71 L64.0042 1042.15 L64.0042 1049.06 L49.9996 1059.43 L64.0042 1069.81 L64.0042 1076.72 L45.3526 1062.87 L28.3562 1075.54 L28.3562 1068.63 L41.0558 1059.18 L28.3562 1049.72 L28.3562 1042.82 Z" fill="#000000" fill-rule="evenodd" fill-opacity="1" /><path clip-path="url(#clip730)" d="M14.479 1013.15 L14.479 1007.3 L64.0042 1007.3 L64.0042 1013.15 L14.479 1013.15 Z" fill="#000000" fill-rule="evenodd" fill-opacity="1" /><path clip-path="url(#clip730)" d="M32.4621 981.23 Q32.4621 985.941 36.1542 988.678 Q39.8145 991.415 46.212 991.415 Q52.6095 991.415 56.3017 988.71 Q59.9619 985.972 59.9619 981.23 Q59.9619 976.551 56.2698 973.814 Q52.5777 971.077 46.212 971.077 Q39.8781 971.077 36.186 973.814 Q32.4621 976.551 32.4621 981.23 M27.4968 981.23 Q27.4968 973.591 32.4621 969.231 Q37.4273 964.87 46.212 964.87 Q54.9649 964.87 59.9619 969.231 Q64.9272 973.591 64.9272 981.23 Q64.9272 988.901 59.9619 993.261 Q54.9649 997.59 46.212 997.59 Q37.4273 997.59 32.4621 993.261 Q27.4968 988.901 27.4968 981.23 Z" fill="#000000" fill-rule="evenodd" fill-opacity="1" /><path clip-path="url(#clip730)" d="M29.7248 929.509 L35.1993 929.509 Q33.8307 931.991 33.1623 934.506 Q32.4621 936.988 32.4621 939.535 Q32.4621 945.232 36.0905 948.383 Q39.6872 951.534 46.212 951.534 Q52.7369 951.534 56.3653 948.383 Q59.9619 945.232 59.9619 939.535 Q59.9619 936.988 59.2935 934.506 Q58.5933 931.991 57.2247 929.509 L62.6355 929.509 Q63.7814 931.959 64.3543 934.601 Q64.9272 937.211 64.9272 940.171 Q64.9272 948.224 59.8664 952.966 Q54.8057 957.709 46.212 957.709 Q37.491 957.709 32.4939 952.934 Q27.4968 948.128 27.4968 939.789 Q27.4968 937.084 28.0697 934.506 Q28.6108 931.928 29.7248 929.509 Z" fill="#000000" fill-rule="evenodd" fill-opacity="1" /><path clip-path="url(#clip730)" d="M46.0847 903.123 Q46.0847 910.221 47.7079 912.958 Q49.3312 915.695 53.2461 915.695 Q56.3653 915.695 58.2114 913.658 Q60.0256 911.589 60.0256 908.056 Q60.0256 903.186 56.5881 900.258 Q53.1188 897.298 47.3897 897.298 L46.0847 897.298 L46.0847 903.123 M43.6657 891.442 L64.0042 891.442 L64.0042 897.298 L58.5933 897.298 Q61.8398 899.303 63.3994 902.295 Q64.9272 905.287 64.9272 909.616 Q64.9272 915.09 61.8716 918.337 Q58.7843 921.551 53.6281 921.551 Q47.6125 921.551 44.5569 917.541 Q41.5014 913.499 41.5014 905.51 L41.5014 897.298 L40.9285 897.298 Q36.8862 897.298 34.6901 899.972 Q32.4621 902.613 32.4621 907.42 Q32.4621 910.475 33.1941 913.372 Q33.9262 916.268 35.3903 918.942 L29.9795 918.942 Q28.7381 915.727 28.1334 912.703 Q27.4968 909.679 27.4968 906.815 Q27.4968 899.081 31.5072 895.261 Q35.5176 891.442 43.6657 891.442 Z" fill="#000000" fill-rule="evenodd" fill-opacity="1" /><path clip-path="url(#clip730)" d="M18.2347 873.586 L28.3562 873.586 L28.3562 861.523 L32.9077 861.523 L32.9077 873.586 L52.2594 873.586 Q56.6199 873.586 57.8613 872.408 Q59.1026 871.199 59.1026 867.538 L59.1026 861.523 L64.0042 861.523 L64.0042 867.538 Q64.0042 874.318 61.4897 876.896 Q58.9434 879.474 52.2594 879.474 L32.9077 879.474 L32.9077 883.771 L28.3562 883.771 L28.3562 879.474 L18.2347 879.474 L18.2347 873.586 Z" fill="#000000" fill-rule="evenodd" fill-opacity="1" /><path clip-path="url(#clip730)" d="M28.3562 853.82 L28.3562 847.964 L64.0042 847.964 L64.0042 853.82 L28.3562 853.82 M14.479 853.82 L14.479 847.964 L21.895 847.964 L21.895 853.82 L14.479 853.82 Z" fill="#000000" fill-rule="evenodd" fill-opacity="1" /><path clip-path="url(#clip730)" d="M32.4621 821.896 Q32.4621 826.607 36.1542 829.344 Q39.8145 832.081 46.212 832.081 Q52.6095 832.081 56.3017 829.376 Q59.9619 826.639 59.9619 821.896 Q59.9619 817.218 56.2698 814.48 Q52.5777 811.743 46.212 811.743 Q39.8781 811.743 36.186 814.48 Q32.4621 817.218 32.4621 821.896 M27.4968 821.896 Q27.4968 814.257 32.4621 809.897 Q37.4273 805.536 46.212 805.536 Q54.9649 805.536 59.9619 809.897 Q64.9272 814.257 64.9272 821.896 Q64.9272 829.567 59.9619 833.928 Q54.9649 838.256 46.212 838.256 Q37.4273 838.256 32.4621 833.928 Q27.4968 829.567 27.4968 821.896 Z" fill="#000000" fill-rule="evenodd" fill-opacity="1" /><path clip-path="url(#clip730)" d="M42.4881 766.196 L64.0042 766.196 L64.0042 772.053 L42.679 772.053 Q37.6183 772.053 35.1038 774.026 Q32.5894 776 32.5894 779.946 Q32.5894 784.689 35.6131 787.426 Q38.6368 790.163 43.8567 790.163 L64.0042 790.163 L64.0042 796.052 L28.3562 796.052 L28.3562 790.163 L33.8944 790.163 Q30.6797 788.063 29.0883 785.23 Q27.4968 782.365 27.4968 778.641 Q27.4968 772.498 31.3163 769.347 Q35.1038 766.196 42.4881 766.196 Z" fill="#000000" fill-rule="evenodd" fill-opacity="1" /><path clip-path="url(#clip730)" d="M14.5426 719.727 Q21.8632 723.992 29.0246 726.061 Q36.186 728.129 43.5384 728.129 Q50.8908 728.129 58.1159 726.061 Q65.3091 723.96 72.5979 719.727 L72.5979 724.819 Q65.1182 729.594 57.8931 731.981 Q50.668 734.336 43.5384 734.336 Q36.4406 734.336 29.2474 731.981 Q22.0542 729.625 14.5426 724.819 L14.5426 719.727 Z" fill="#000000" fill-rule="evenodd" fill-opacity="1" /><path clip-path="url(#clip730)" d="M28.3562 708.364 L28.3562 702.507 L64.0042 702.507 L64.0042 708.364 L28.3562 708.364 M14.479 708.364 L14.479 702.507 L21.895 702.507 L21.895 708.364 L14.479 708.364 Z" fill="#000000" fill-rule="evenodd" fill-opacity="1" /><path clip-path="url(#clip730)" d="M42.4881 660.621 L64.0042 660.621 L64.0042 666.478 L42.679 666.478 Q37.6183 666.478 35.1038 668.451 Q32.5894 670.424 32.5894 674.371 Q32.5894 679.114 35.6131 681.851 Q38.6368 684.588 43.8567 684.588 L64.0042 684.588 L64.0042 690.476 L28.3562 690.476 L28.3562 684.588 L33.8944 684.588 Q30.6797 682.487 29.0883 679.655 Q27.4968 676.79 27.4968 673.066 Q27.4968 666.923 31.3163 663.772 Q35.1038 660.621 42.4881 660.621 Z" fill="#000000" fill-rule="evenodd" fill-opacity="1" /><path clip-path="url(#clip730)" d="M35.1993 600.465 Q31.2526 598.269 29.3747 595.214 Q27.4968 592.158 27.4968 588.02 Q27.4968 582.45 31.4117 579.427 Q35.2948 576.403 42.4881 576.403 L64.0042 576.403 L64.0042 582.291 L42.679 582.291 Q37.5546 582.291 35.072 584.105 Q32.5894 585.92 32.5894 589.644 Q32.5894 594.195 35.6131 596.837 Q38.6368 599.479 43.8567 599.479 L64.0042 599.479 L64.0042 605.367 L42.679 605.367 Q37.5228 605.367 35.072 607.181 Q32.5894 608.995 32.5894 612.783 Q32.5894 617.271 35.6449 619.912 Q38.6686 622.554 43.8567 622.554 L64.0042 622.554 L64.0042 628.443 L28.3562 628.443 L28.3562 622.554 L33.8944 622.554 Q30.616 620.549 29.0564 617.748 Q27.4968 614.947 27.4968 611.096 Q27.4968 607.213 29.4702 604.507 Q31.4436 601.77 35.1993 600.465 Z" fill="#000000" fill-rule="evenodd" fill-opacity="1" /><path clip-path="url(#clip730)" d="M44.7161 534.23 L47.5806 534.23 L47.5806 561.157 Q53.6281 560.775 56.8109 557.529 Q59.9619 554.25 59.9619 548.426 Q59.9619 545.052 59.1344 541.901 Q58.3069 538.718 56.6518 535.599 L62.1899 535.599 Q63.5267 538.75 64.227 542.06 Q64.9272 545.37 64.9272 548.776 Q64.9272 557.306 59.9619 562.303 Q54.9967 567.268 46.5303 567.268 Q37.7774 567.268 32.6531 562.557 Q27.4968 557.815 27.4968 549.794 Q27.4968 542.601 32.1438 538.431 Q36.7589 534.23 44.7161 534.23 M42.9973 540.086 Q38.1912 540.15 35.3266 542.792 Q32.4621 545.402 32.4621 549.731 Q32.4621 554.632 35.2312 557.592 Q38.0002 560.52 43.0292 560.966 L42.9973 540.086 Z" fill="#000000" fill-rule="evenodd" fill-opacity="1" /><path clip-path="url(#clip730)" d="M18.2347 518.825 L28.3562 518.825 L28.3562 506.762 L32.9077 506.762 L32.9077 518.825 L52.2594 518.825 Q56.6199 518.825 57.8613 517.647 Q59.1026 516.438 59.1026 512.778 L59.1026 506.762 L64.0042 506.762 L64.0042 512.778 Q64.0042 519.557 61.4897 522.135 Q58.9434 524.713 52.2594 524.713 L32.9077 524.713 L32.9077 529.01 L28.3562 529.01 L28.3562 524.713 L18.2347 524.713 L18.2347 518.825 Z" fill="#000000" fill-rule="evenodd" fill-opacity="1" /><path clip-path="url(#clip730)" d="M44.7161 468.568 L47.5806 468.568 L47.5806 495.495 Q53.6281 495.113 56.8109 491.866 Q59.9619 488.588 59.9619 482.763 Q59.9619 479.389 59.1344 476.238 Q58.3069 473.056 56.6518 469.936 L62.1899 469.936 Q63.5267 473.087 64.227 476.398 Q64.9272 479.708 64.9272 483.113 Q64.9272 491.643 59.9619 496.641 Q54.9967 501.606 46.5303 501.606 Q37.7774 501.606 32.6531 496.895 Q27.4968 492.153 27.4968 484.132 Q27.4968 476.939 32.1438 472.769 Q36.7589 468.568 44.7161 468.568 M42.9973 474.424 Q38.1912 474.488 35.3266 477.13 Q32.4621 479.74 32.4621 484.068 Q32.4621 488.97 35.2312 491.93 Q38.0002 494.858 43.0292 495.304 L42.9973 474.424 Z" fill="#000000" fill-rule="evenodd" fill-opacity="1" /><path clip-path="url(#clip730)" d="M33.8307 438.299 Q33.2578 439.286 33.0032 440.463 Q32.7167 441.609 32.7167 443.009 Q32.7167 447.975 35.9632 450.648 Q39.1779 453.29 45.2253 453.29 L64.0042 453.29 L64.0042 459.178 L28.3562 459.178 L28.3562 453.29 L33.8944 453.29 Q30.6479 451.444 29.0883 448.484 Q27.4968 445.524 27.4968 441.291 Q27.4968 440.686 27.5923 439.954 Q27.656 439.222 27.8151 438.331 L33.8307 438.299 Z" fill="#000000" fill-rule="evenodd" fill-opacity="1" /><path clip-path="url(#clip730)" d="M14.5426 433.079 L14.5426 427.986 Q22.0542 423.212 29.2474 420.857 Q36.4406 418.47 43.5384 418.47 Q50.668 418.47 57.8931 420.857 Q65.1182 423.212 72.5979 427.986 L72.5979 433.079 Q65.3091 428.846 58.1159 426.777 Q50.8908 424.676 43.5384 424.676 Q36.186 424.676 29.0246 426.777 Q21.8632 428.846 14.5426 433.079 Z" fill="#000000" fill-rule="evenodd" fill-opacity="1" /><path clip-path="url(#clip730)" d="M527.768 12.096 L578.931 12.096 L578.931 18.9825 L557.461 18.9825 L557.461 72.576 L549.237 72.576 L549.237 18.9825 L527.768 18.9825 L527.768 12.096 Z" fill="#000000" fill-rule="evenodd" fill-opacity="1" /><path clip-path="url(#clip730)" d="M600.603 34.1734 Q599.347 33.4443 597.848 33.1202 Q596.39 32.7556 594.608 32.7556 Q588.288 32.7556 584.885 36.8875 Q581.523 40.9789 581.523 48.6757 L581.523 72.576 L574.029 72.576 L574.029 27.2059 L581.523 27.2059 L581.523 34.2544 Q583.873 30.1225 587.64 28.1376 Q591.407 26.1121 596.795 26.1121 Q597.565 26.1121 598.496 26.2337 Q599.428 26.3147 600.562 26.5172 L600.603 34.1734 Z" fill="#000000" fill-rule="evenodd" fill-opacity="1" /><path clip-path="url(#clip730)" d="M629.04 49.7694 Q620.007 49.7694 616.523 51.8354 Q613.039 53.9013 613.039 58.8839 Q613.039 62.8538 615.632 65.2034 Q618.265 67.5124 622.761 67.5124 Q628.959 67.5124 632.686 63.1374 Q636.453 58.7219 636.453 51.4303 L636.453 49.7694 L629.04 49.7694 M643.907 46.6907 L643.907 72.576 L636.453 72.576 L636.453 65.6895 Q633.901 69.8214 630.094 71.8063 Q626.286 73.7508 620.776 73.7508 Q613.809 73.7508 609.677 69.8619 Q605.586 65.9325 605.586 59.3701 Q605.586 51.7138 610.69 47.825 Q615.834 43.9361 626.002 43.9361 L636.453 43.9361 L636.453 43.2069 Q636.453 38.0623 633.051 35.2672 Q629.688 32.4315 623.572 32.4315 Q619.683 32.4315 615.996 33.3632 Q612.31 34.295 608.907 36.1584 L608.907 29.2718 Q612.999 27.692 616.847 26.9223 Q620.695 26.1121 624.341 26.1121 Q634.185 26.1121 639.046 31.2163 Q643.907 36.3204 643.907 46.6907 Z" fill="#000000" fill-rule="evenodd" fill-opacity="1" /><path clip-path="url(#clip730)" d="M659.26 27.2059 L666.714 27.2059 L666.714 73.3862 Q666.714 82.0551 663.392 85.944 Q660.111 89.8329 652.779 89.8329 L649.943 89.8329 L649.943 83.5134 L651.928 83.5134 Q656.181 83.5134 657.721 81.5285 Q659.26 79.5841 659.26 73.3862 L659.26 27.2059 M659.26 9.54393 L666.714 9.54393 L666.714 18.9825 L659.26 18.9825 L659.26 9.54393 Z" fill="#000000" fill-rule="evenodd" fill-opacity="1" /><path clip-path="url(#clip730)" d="M721.117 48.0275 L721.117 51.6733 L686.847 51.6733 Q687.333 59.3701 691.465 63.421 Q695.637 67.4314 703.05 67.4314 Q707.344 67.4314 711.355 66.3781 Q715.406 65.3249 719.375 63.2184 L719.375 70.267 Q715.365 71.9684 711.152 72.8596 Q706.939 73.7508 702.605 73.7508 Q691.748 73.7508 685.388 67.4314 Q679.069 61.1119 679.069 50.3365 Q679.069 39.1965 685.064 32.6746 Q691.1 26.1121 701.308 26.1121 Q710.463 26.1121 715.77 32.0264 Q721.117 37.9003 721.117 48.0275 M713.664 45.84 Q713.583 39.7232 710.22 36.0774 Q706.899 32.4315 701.389 32.4315 Q695.151 32.4315 691.384 35.9558 Q687.657 39.4801 687.09 45.8805 L713.664 45.84 Z" fill="#000000" fill-rule="evenodd" fill-opacity="1" /><path clip-path="url(#clip730)" d="M766.001 28.9478 L766.001 35.9153 Q762.842 34.1734 759.641 33.3227 Q756.482 32.4315 753.241 32.4315 Q745.99 32.4315 741.98 37.0496 Q737.969 41.6271 737.969 49.9314 Q737.969 58.2358 741.98 62.8538 Q745.99 67.4314 753.241 67.4314 Q756.482 67.4314 759.641 66.5807 Q762.842 65.6895 766.001 63.9476 L766.001 70.8341 Q762.882 72.2924 759.52 73.0216 Q756.198 73.7508 752.431 73.7508 Q742.182 73.7508 736.146 67.3098 Q730.11 60.8689 730.11 49.9314 Q730.11 38.832 736.187 32.472 Q742.304 26.1121 752.917 26.1121 Q756.36 26.1121 759.641 26.8413 Q762.923 27.5299 766.001 28.9478 Z" fill="#000000" fill-rule="evenodd" fill-opacity="1" /><path clip-path="url(#clip730)" d="M786.337 14.324 L786.337 27.2059 L801.69 27.2059 L801.69 32.9987 L786.337 32.9987 L786.337 57.6282 Q786.337 63.1779 787.836 64.7578 Q789.375 66.3376 794.034 66.3376 L801.69 66.3376 L801.69 72.576 L794.034 72.576 Q785.405 72.576 782.124 69.3758 Q778.843 66.1351 778.843 57.6282 L778.843 32.9987 L773.374 32.9987 L773.374 27.2059 L778.843 27.2059 L778.843 14.324 L786.337 14.324 Z" fill="#000000" fill-rule="evenodd" fill-opacity="1" /><path clip-path="url(#clip730)" d="M829.074 32.4315 Q823.079 32.4315 819.595 37.1306 Q816.111 41.7891 816.111 49.9314 Q816.111 58.0738 819.554 62.7728 Q823.038 67.4314 829.074 67.4314 Q835.029 67.4314 838.513 62.7323 Q841.996 58.0333 841.996 49.9314 Q841.996 41.8701 838.513 37.1711 Q835.029 32.4315 829.074 32.4315 M829.074 26.1121 Q838.796 26.1121 844.346 32.4315 Q849.896 38.7509 849.896 49.9314 Q849.896 61.0714 844.346 67.4314 Q838.796 73.7508 829.074 73.7508 Q819.311 73.7508 813.762 67.4314 Q808.252 61.0714 808.252 49.9314 Q808.252 38.7509 813.762 32.4315 Q819.311 26.1121 829.074 26.1121 Z" fill="#000000" fill-rule="evenodd" fill-opacity="1" /><path clip-path="url(#clip730)" d="M888.541 34.1734 Q887.285 33.4443 885.787 33.1202 Q884.328 32.7556 882.546 32.7556 Q876.226 32.7556 872.824 36.8875 Q869.461 40.9789 869.461 48.6757 L869.461 72.576 L861.967 72.576 L861.967 27.2059 L869.461 27.2059 L869.461 34.2544 Q871.811 30.1225 875.578 28.1376 Q879.346 26.1121 884.733 26.1121 Q885.503 26.1121 886.435 26.2337 Q887.366 26.3147 888.501 26.5172 L888.541 34.1734 Z" fill="#000000" fill-rule="evenodd" fill-opacity="1" /><path clip-path="url(#clip730)" d="M915.237 76.7889 Q912.077 84.8907 909.079 87.3618 Q906.082 89.8329 901.059 89.8329 L895.104 89.8329 L895.104 83.5945 L899.479 83.5945 Q902.557 83.5945 904.259 82.1361 Q905.96 80.6778 908.026 75.2496 L909.363 71.8468 L891.012 27.2059 L898.912 27.2059 L913.09 62.6918 L927.268 27.2059 L935.167 27.2059 L915.237 76.7889 Z" fill="#000000" fill-rule="evenodd" fill-opacity="1" /><path clip-path="url(#clip730)" d="M989.409 32.4315 Q983.413 32.4315 979.93 37.1306 Q976.446 41.7891 976.446 49.9314 Q976.446 58.0738 979.889 62.7728 Q983.373 67.4314 989.409 67.4314 Q995.364 67.4314 998.847 62.7323 Q1002.33 58.0333 1002.33 49.9314 Q1002.33 41.8701 998.847 37.1711 Q995.364 32.4315 989.409 32.4315 M989.409 26.1121 Q999.131 26.1121 1004.68 32.4315 Q1010.23 38.7509 1010.23 49.9314 Q1010.23 61.0714 1004.68 67.4314 Q999.131 73.7508 989.409 73.7508 Q979.646 73.7508 974.096 67.4314 Q968.587 61.0714 968.587 49.9314 Q968.587 38.7509 974.096 32.4315 Q979.646 26.1121 989.409 26.1121 Z" fill="#000000" fill-rule="evenodd" fill-opacity="1" /><path clip-path="url(#clip730)" d="M1017.24 27.2059 L1025.14 27.2059 L1039.32 65.2844 L1053.49 27.2059 L1061.39 27.2059 L1044.38 72.576 L1034.25 72.576 L1017.24 27.2059 Z" fill="#000000" fill-rule="evenodd" fill-opacity="1" /><path clip-path="url(#clip730)" d="M1110.49 48.0275 L1110.49 51.6733 L1076.22 51.6733 Q1076.71 59.3701 1080.84 63.421 Q1085.01 67.4314 1092.42 67.4314 Q1096.72 67.4314 1100.73 66.3781 Q1104.78 65.3249 1108.75 63.2184 L1108.75 70.267 Q1104.74 71.9684 1100.53 72.8596 Q1096.31 73.7508 1091.98 73.7508 Q1081.12 73.7508 1074.76 67.4314 Q1068.44 61.1119 1068.44 50.3365 Q1068.44 39.1965 1074.44 32.6746 Q1080.47 26.1121 1090.68 26.1121 Q1099.84 26.1121 1105.14 32.0264 Q1110.49 37.9003 1110.49 48.0275 M1103.04 45.84 Q1102.96 39.7232 1099.59 36.0774 Q1096.27 32.4315 1090.76 32.4315 Q1084.52 32.4315 1080.76 35.9558 Q1077.03 39.4801 1076.46 45.8805 L1103.04 45.84 Z" fill="#000000" fill-rule="evenodd" fill-opacity="1" /><path clip-path="url(#clip730)" d="M1149.01 34.1734 Q1147.76 33.4443 1146.26 33.1202 Q1144.8 32.7556 1143.02 32.7556 Q1136.7 32.7556 1133.3 36.8875 Q1129.93 40.9789 1129.93 48.6757 L1129.93 72.576 L1122.44 72.576 L1122.44 27.2059 L1129.93 27.2059 L1129.93 34.2544 Q1132.28 30.1225 1136.05 28.1376 Q1139.82 26.1121 1145.21 26.1121 Q1145.98 26.1121 1146.91 26.2337 Q1147.84 26.3147 1148.97 26.5172 L1149.01 34.1734 Z" fill="#000000" fill-rule="evenodd" fill-opacity="1" /><path clip-path="url(#clip730)" d="M1190.58 14.324 L1190.58 27.2059 L1205.93 27.2059 L1205.93 32.9987 L1190.58 32.9987 L1190.58 57.6282 Q1190.58 63.1779 1192.08 64.7578 Q1193.61 66.3376 1198.27 66.3376 L1205.93 66.3376 L1205.93 72.576 L1198.27 72.576 Q1189.64 72.576 1186.36 69.3758 Q1183.08 66.1351 1183.08 57.6282 L1183.08 32.9987 L1177.61 32.9987 L1177.61 27.2059 L1183.08 27.2059 L1183.08 14.324 L1190.58 14.324 Z" fill="#000000" fill-rule="evenodd" fill-opacity="1" /><path clip-path="url(#clip730)" d="M1215.73 27.2059 L1223.19 27.2059 L1223.19 72.576 L1215.73 72.576 L1215.73 27.2059 M1215.73 9.54393 L1223.19 9.54393 L1223.19 18.9825 L1215.73 18.9825 L1215.73 9.54393 Z" fill="#000000" fill-rule="evenodd" fill-opacity="1" /><path clip-path="url(#clip730)" d="M1274.11 35.9153 Q1276.9 30.8922 1280.79 28.5022 Q1284.68 26.1121 1289.95 26.1121 Q1297.03 26.1121 1300.88 31.0947 Q1304.73 36.0368 1304.73 45.1919 L1304.73 72.576 L1297.24 72.576 L1297.24 45.4349 Q1297.24 38.913 1294.93 35.7533 Q1292.62 32.5936 1287.88 32.5936 Q1282.09 32.5936 1278.72 36.4419 Q1275.36 40.2903 1275.36 46.9338 L1275.36 72.576 L1267.87 72.576 L1267.87 45.4349 Q1267.87 38.8725 1265.56 35.7533 Q1263.25 32.5936 1258.43 32.5936 Q1252.72 32.5936 1249.36 36.4824 Q1245.99 40.3308 1245.99 46.9338 L1245.99 72.576 L1238.5 72.576 L1238.5 27.2059 L1245.99 27.2059 L1245.99 34.2544 Q1248.55 30.082 1252.11 28.0971 Q1255.67 26.1121 1260.58 26.1121 Q1265.52 26.1121 1268.96 28.6237 Q1272.45 31.1352 1274.11 35.9153 Z" fill="#000000" fill-rule="evenodd" fill-opacity="1" /><path clip-path="url(#clip730)" d="M1358.41 48.0275 L1358.41 51.6733 L1324.13 51.6733 Q1324.62 59.3701 1328.75 63.421 Q1332.93 67.4314 1340.34 67.4314 Q1344.63 67.4314 1348.64 66.3781 Q1352.69 65.3249 1356.66 63.2184 L1356.66 70.267 Q1352.65 71.9684 1348.44 72.8596 Q1344.23 73.7508 1339.89 73.7508 Q1329.04 73.7508 1322.68 67.4314 Q1316.36 61.1119 1316.36 50.3365 Q1316.36 39.1965 1322.35 32.6746 Q1328.39 26.1121 1338.6 26.1121 Q1347.75 26.1121 1353.06 32.0264 Q1358.41 37.9003 1358.41 48.0275 M1350.95 45.84 Q1350.87 39.7232 1347.51 36.0774 Q1344.19 32.4315 1338.68 32.4315 Q1332.44 32.4315 1328.67 35.9558 Q1324.95 39.4801 1324.38 45.8805 L1350.95 45.84 Z" fill="#000000" fill-rule="evenodd" fill-opacity="1" /><path clip-path="url(#clip730)" d="M1366.87 46.5287 L1388.71 46.5287 L1388.71 53.1722 L1366.87 53.1722 L1366.87 46.5287 Z" fill="#000000" fill-rule="evenodd" fill-opacity="1" /><path clip-path="url(#clip730)" d="M1429.5 28.5427 L1429.5 35.5912 Q1426.34 33.9709 1422.94 33.1607 Q1419.53 32.3505 1415.89 32.3505 Q1410.34 32.3505 1407.54 34.0519 Q1404.79 35.7533 1404.79 39.156 Q1404.79 41.7486 1406.77 43.2475 Q1408.76 44.7058 1414.75 46.0426 L1417.31 46.6097 Q1425.25 48.3111 1428.57 51.4303 Q1431.93 54.509 1431.93 60.0587 Q1431.93 66.3781 1426.91 70.0644 Q1421.92 73.7508 1413.17 73.7508 Q1409.53 73.7508 1405.56 73.0216 Q1401.63 72.3329 1397.25 70.9151 L1397.25 63.2184 Q1401.39 65.3654 1405.4 66.4591 Q1409.41 67.5124 1413.34 67.5124 Q1418.6 67.5124 1421.44 65.73 Q1424.27 63.9071 1424.27 60.6258 Q1424.27 57.5877 1422.21 55.9673 Q1420.18 54.3469 1413.25 52.8481 L1410.66 52.2405 Q1403.74 50.7821 1400.66 47.7845 Q1397.58 44.7463 1397.58 39.4801 Q1397.58 33.0797 1402.11 29.5959 Q1406.65 26.1121 1415 26.1121 Q1419.13 26.1121 1422.77 26.7198 Q1426.42 27.3274 1429.5 28.5427 Z" fill="#000000" fill-rule="evenodd" fill-opacity="1" /><path clip-path="url(#clip730)" d="M1451.01 65.7705 L1451.01 89.8329 L1443.52 89.8329 L1443.52 27.2059 L1451.01 27.2059 L1451.01 34.0924 Q1453.36 30.0415 1456.92 28.0971 Q1460.53 26.1121 1465.51 26.1121 Q1473.78 26.1121 1478.92 32.6746 Q1484.11 39.2371 1484.11 49.9314 Q1484.11 60.6258 1478.92 67.1883 Q1473.78 73.7508 1465.51 73.7508 Q1460.53 73.7508 1456.92 71.8063 Q1453.36 69.8214 1451.01 65.7705 M1476.37 49.9314 Q1476.37 41.7081 1472.97 37.0496 Q1469.6 32.3505 1463.69 32.3505 Q1457.77 32.3505 1454.37 37.0496 Q1451.01 41.7081 1451.01 49.9314 Q1451.01 58.1548 1454.37 62.8538 Q1457.77 67.5124 1463.69 67.5124 Q1469.6 67.5124 1472.97 62.8538 Q1476.37 58.1548 1476.37 49.9314 Z" fill="#000000" fill-rule="evenodd" fill-opacity="1" /><path clip-path="url(#clip730)" d="M1517.08 49.7694 Q1508.05 49.7694 1504.56 51.8354 Q1501.08 53.9013 1501.08 58.8839 Q1501.08 62.8538 1503.67 65.2034 Q1506.3 67.5124 1510.8 67.5124 Q1517 67.5124 1520.73 63.1374 Q1524.49 58.7219 1524.49 51.4303 L1524.49 49.7694 L1517.08 49.7694 M1531.95 46.6907 L1531.95 72.576 L1524.49 72.576 L1524.49 65.6895 Q1521.94 69.8214 1518.13 71.8063 Q1514.32 73.7508 1508.82 73.7508 Q1501.85 73.7508 1497.72 69.8619 Q1493.62 65.9325 1493.62 59.3701 Q1493.62 51.7138 1498.73 47.825 Q1503.87 43.9361 1514.04 43.9361 L1524.49 43.9361 L1524.49 43.2069 Q1524.49 38.0623 1521.09 35.2672 Q1517.73 32.4315 1511.61 32.4315 Q1507.72 32.4315 1504.04 33.3632 Q1500.35 34.295 1496.95 36.1584 L1496.95 29.2718 Q1501.04 27.692 1504.89 26.9223 Q1508.73 26.1121 1512.38 26.1121 Q1522.22 26.1121 1527.09 31.2163 Q1531.95 36.3204 1531.95 46.6907 Z" fill="#000000" fill-rule="evenodd" fill-opacity="1" /><path clip-path="url(#clip730)" d="M1579.95 28.9478 L1579.95 35.9153 Q1576.79 34.1734 1573.59 33.3227 Q1570.43 32.4315 1567.19 32.4315 Q1559.94 32.4315 1555.93 37.0496 Q1551.92 41.6271 1551.92 49.9314 Q1551.92 58.2358 1555.93 62.8538 Q1559.94 67.4314 1567.19 67.4314 Q1570.43 67.4314 1573.59 66.5807 Q1576.79 65.6895 1579.95 63.9476 L1579.95 70.8341 Q1576.83 72.2924 1573.47 73.0216 Q1570.15 73.7508 1566.38 73.7508 Q1556.13 73.7508 1550.09 67.3098 Q1544.06 60.8689 1544.06 49.9314 Q1544.06 38.832 1550.13 32.472 Q1556.25 26.1121 1566.87 26.1121 Q1570.31 26.1121 1573.59 26.8413 Q1576.87 27.5299 1579.95 28.9478 Z" fill="#000000" fill-rule="evenodd" fill-opacity="1" /><path clip-path="url(#clip730)" d="M1631.72 48.0275 L1631.72 51.6733 L1597.45 51.6733 Q1597.94 59.3701 1602.07 63.421 Q1606.24 67.4314 1613.65 67.4314 Q1617.95 67.4314 1621.96 66.3781 Q1626.01 65.3249 1629.98 63.2184 L1629.98 70.267 Q1625.97 71.9684 1621.75 72.8596 Q1617.54 73.7508 1613.21 73.7508 Q1602.35 73.7508 1595.99 67.4314 Q1589.67 61.1119 1589.67 50.3365 Q1589.67 39.1965 1595.67 32.6746 Q1601.7 26.1121 1611.91 26.1121 Q1621.07 26.1121 1626.37 32.0264 Q1631.72 37.9003 1631.72 48.0275 M1624.27 45.84 Q1624.19 39.7232 1620.82 36.0774 Q1617.5 32.4315 1611.99 32.4315 Q1605.75 32.4315 1601.99 35.9558 Q1598.26 39.4801 1597.69 45.8805 L1624.27 45.84 Z" fill="#000000" fill-rule="evenodd" fill-opacity="1" /><path clip-path="url(#clip730)" d="M1700.18 34.0924 L1700.18 9.54393 L1707.63 9.54393 L1707.63 72.576 L1700.18 72.576 L1700.18 65.7705 Q1697.83 69.8214 1694.23 71.8063 Q1690.66 73.7508 1685.64 73.7508 Q1677.41 73.7508 1672.23 67.1883 Q1667.08 60.6258 1667.08 49.9314 Q1667.08 39.2371 1672.23 32.6746 Q1677.41 26.1121 1685.64 26.1121 Q1690.66 26.1121 1694.23 28.0971 Q1697.83 30.0415 1700.18 34.0924 M1674.78 49.9314 Q1674.78 58.1548 1678.14 62.8538 Q1681.55 67.5124 1687.46 67.5124 Q1693.37 67.5124 1696.78 62.8538 Q1700.18 58.1548 1700.18 49.9314 Q1700.18 41.7081 1696.78 37.0496 Q1693.37 32.3505 1687.46 32.3505 Q1681.55 32.3505 1678.14 37.0496 Q1674.78 41.7081 1674.78 49.9314 Z" fill="#000000" fill-rule="evenodd" fill-opacity="1" /><path clip-path="url(#clip730)" d="M1722.99 27.2059 L1730.44 27.2059 L1730.44 72.576 L1722.99 72.576 L1722.99 27.2059 M1722.99 9.54393 L1730.44 9.54393 L1730.44 18.9825 L1722.99 18.9825 L1722.99 9.54393 Z" fill="#000000" fill-rule="evenodd" fill-opacity="1" /><path clip-path="url(#clip730)" d="M1766.66 49.7694 Q1757.62 49.7694 1754.14 51.8354 Q1750.65 53.9013 1750.65 58.8839 Q1750.65 62.8538 1753.25 65.2034 Q1755.88 67.5124 1760.38 67.5124 Q1766.57 67.5124 1770.3 63.1374 Q1774.07 58.7219 1774.07 51.4303 L1774.07 49.7694 L1766.66 49.7694 M1781.52 46.6907 L1781.52 72.576 L1774.07 72.576 L1774.07 65.6895 Q1771.52 69.8214 1767.71 71.8063 Q1763.9 73.7508 1758.39 73.7508 Q1751.42 73.7508 1747.29 69.8619 Q1743.2 65.9325 1743.2 59.3701 Q1743.2 51.7138 1748.31 47.825 Q1753.45 43.9361 1763.62 43.9361 L1774.07 43.9361 L1774.07 43.2069 Q1774.07 38.0623 1770.67 35.2672 Q1767.3 32.4315 1761.19 32.4315 Q1757.3 32.4315 1753.61 33.3632 Q1749.93 34.295 1746.52 36.1584 L1746.52 29.2718 Q1750.61 27.692 1754.46 26.9223 Q1758.31 26.1121 1761.96 26.1121 Q1771.8 26.1121 1776.66 31.2163 Q1781.52 36.3204 1781.52 46.6907 Z" fill="#000000" fill-rule="evenodd" fill-opacity="1" /><path clip-path="url(#clip730)" d="M1826.73 49.3643 Q1826.73 41.2625 1823.37 36.8065 Q1820.05 32.3505 1814.01 32.3505 Q1808.02 32.3505 1804.65 36.8065 Q1801.33 41.2625 1801.33 49.3643 Q1801.33 57.4256 1804.65 61.8816 Q1808.02 66.3376 1814.01 66.3376 Q1820.05 66.3376 1823.37 61.8816 Q1826.73 57.4256 1826.73 49.3643 M1834.18 66.9452 Q1834.18 78.5308 1829.04 84.1616 Q1823.9 89.8329 1813.28 89.8329 Q1809.35 89.8329 1805.87 89.2252 Q1802.38 88.6581 1799.1 87.4428 L1799.1 80.1917 Q1802.38 81.9741 1805.58 82.8248 Q1808.79 83.6755 1812.11 83.6755 Q1819.44 83.6755 1823.08 79.8271 Q1826.73 76.0193 1826.73 68.282 L1826.73 64.5957 Q1824.42 68.6061 1820.82 70.5911 Q1817.21 72.576 1812.19 72.576 Q1803.84 72.576 1798.74 66.2161 Q1793.63 59.8562 1793.63 49.3643 Q1793.63 38.832 1798.74 32.472 Q1803.84 26.1121 1812.19 26.1121 Q1817.21 26.1121 1820.82 28.0971 Q1824.42 30.082 1826.73 34.0924 L1826.73 27.2059 L1834.18 27.2059 L1834.18 66.9452 Z" fill="#000000" fill-rule="evenodd" fill-opacity="1" /><path clip-path="url(#clip730)" d="M1875.83 34.1734 Q1874.57 33.4443 1873.07 33.1202 Q1871.61 32.7556 1869.83 32.7556 Q1863.51 32.7556 1860.11 36.8875 Q1856.75 40.9789 1856.75 48.6757 L1856.75 72.576 L1849.25 72.576 L1849.25 27.2059 L1856.75 27.2059 L1856.75 34.2544 Q1859.1 30.1225 1862.86 28.1376 Q1866.63 26.1121 1872.02 26.1121 Q1872.79 26.1121 1873.72 26.2337 Q1874.65 26.3147 1875.79 26.5172 L1875.83 34.1734 Z" fill="#000000" fill-rule="evenodd" fill-opacity="1" /><path clip-path="url(#clip730)" d="M1904.26 49.7694 Q1895.23 49.7694 1891.75 51.8354 Q1888.26 53.9013 1888.26 58.8839 Q1888.26 62.8538 1890.86 65.2034 Q1893.49 67.5124 1897.99 67.5124 Q1904.18 67.5124 1907.91 63.1374 Q1911.68 58.7219 1911.68 51.4303 L1911.68 49.7694 L1904.26 49.7694 M1919.13 46.6907 L1919.13 72.576 L1911.68 72.576 L1911.68 65.6895 Q1909.13 69.8214 1905.32 71.8063 Q1901.51 73.7508 1896 73.7508 Q1889.03 73.7508 1884.9 69.8619 Q1880.81 65.9325 1880.81 59.3701 Q1880.81 51.7138 1885.91 47.825 Q1891.06 43.9361 1901.23 43.9361 L1911.68 43.9361 L1911.68 43.2069 Q1911.68 38.0623 1908.28 35.2672 Q1904.91 32.4315 1898.8 32.4315 Q1894.91 32.4315 1891.22 33.3632 Q1887.53 34.295 1884.13 36.1584 L1884.13 29.2718 Q1888.22 27.692 1892.07 26.9223 Q1895.92 26.1121 1899.57 26.1121 Q1909.41 26.1121 1914.27 31.2163 Q1919.13 36.3204 1919.13 46.6907 Z" fill="#000000" fill-rule="evenodd" fill-opacity="1" /><path clip-path="url(#clip730)" d="M1969.81 35.9153 Q1972.6 30.8922 1976.49 28.5022 Q1980.38 26.1121 1985.65 26.1121 Q1992.74 26.1121 1996.59 31.0947 Q2000.43 36.0368 2000.43 45.1919 L2000.43 72.576 L1992.94 72.576 L1992.94 45.4349 Q1992.94 38.913 1990.63 35.7533 Q1988.32 32.5936 1983.58 32.5936 Q1977.79 32.5936 1974.43 36.4419 Q1971.06 40.2903 1971.06 46.9338 L1971.06 72.576 L1963.57 72.576 L1963.57 45.4349 Q1963.57 38.8725 1961.26 35.7533 Q1958.95 32.5936 1954.13 32.5936 Q1948.42 32.5936 1945.06 36.4824 Q1941.7 40.3308 1941.7 46.9338 L1941.7 72.576 L1934.2 72.576 L1934.2 27.2059 L1941.7 27.2059 L1941.7 34.2544 Q1944.25 30.082 1947.81 28.0971 Q1951.38 26.1121 1956.28 26.1121 Q1961.22 26.1121 1964.66 28.6237 Q1968.15 31.1352 1969.81 35.9153 Z" fill="#000000" fill-rule="evenodd" fill-opacity="1" /><polyline clip-path="url(#clip732)" style="stroke:#009af9; stroke-linecap:butt; stroke-linejoin:round; stroke-width:12; stroke-opacity:1; fill:none" points="
  237.067,1386.4 647.881,1250.16 1058.69,1113.92 1469.51,841.445 1880.32,568.969 2291.13,160.256 
  "/>
<circle clip-path="url(#clip732)" cx="237.067" cy="1386.4" r="14" fill="#ffa500" fill-rule="evenodd" fill-opacity="1" stroke="#000000" stroke-opacity="1" stroke-width="3.2"/>
<circle clip-path="url(#clip732)" cx="647.881" cy="1250.16" r="14" fill="#ffa500" fill-rule="evenodd" fill-opacity="1" stroke="#000000" stroke-opacity="1" stroke-width="3.2"/>
<circle clip-path="url(#clip732)" cx="1058.69" cy="1113.92" r="14" fill="#ffa500" fill-rule="evenodd" fill-opacity="1" stroke="#000000" stroke-opacity="1" stroke-width="3.2"/>
<circle clip-path="url(#clip732)" cx="1469.51" cy="841.445" r="14" fill="#ffa500" fill-rule="evenodd" fill-opacity="1" stroke="#000000" stroke-opacity="1" stroke-width="3.2"/>
<circle clip-path="url(#clip732)" cx="1880.32" cy="568.969" r="14" fill="#ffa500" fill-rule="evenodd" fill-opacity="1" stroke="#000000" stroke-opacity="1" stroke-width="3.2"/>
<circle clip-path="url(#clip732)" cx="2291.13" cy="160.256" r="14" fill="#ffa500" fill-rule="evenodd" fill-opacity="1" stroke="#000000" stroke-opacity="1" stroke-width="3.2"/>
<path clip-path="url(#clip730)" d="
M1810.27 270.476 L2280.18 270.476 L2280.18 166.796 L1810.27 166.796  Z
  " fill="#ffffff" fill-rule="evenodd" fill-opacity="1"/>
<polyline clip-path="url(#clip730)" style="stroke:#000000; stroke-linecap:butt; stroke-linejoin:round; stroke-width:4; stroke-opacity:1; fill:none" points="
  1810.27,270.476 2280.18,270.476 2280.18,166.796 1810.27,166.796 1810.27,270.476 
  "/>
<polyline clip-path="url(#clip730)" style="stroke:#009af9; stroke-linecap:butt; stroke-linejoin:round; stroke-width:4; stroke-opacity:1; fill:none" points="
  1834.46,218.636 1979.62,218.636 
  "/>
<circle clip-path="url(#clip730)" cx="1907.04" cy="218.636" r="23" fill="#ffa500" fill-rule="evenodd" fill-opacity="1" stroke="#000000" stroke-opacity="1" stroke-width="5.12"/>
<path clip-path="url(#clip730)" d="M2011.22 202.629 L2011.22 209.99 L2019.99 209.99 L2019.99 213.3 L2011.22 213.3 L2011.22 227.374 Q2011.22 230.545 2012.07 231.448 Q2012.95 232.351 2015.61 232.351 L2019.99 232.351 L2019.99 235.916 L2015.61 235.916 Q2010.68 235.916 2008.81 234.087 Q2006.93 232.235 2006.93 227.374 L2006.93 213.3 L2003.81 213.3 L2003.81 209.99 L2006.93 209.99 L2006.93 202.629 L2011.22 202.629 Z" fill="#000000" fill-rule="evenodd" fill-opacity="1" /><path clip-path="url(#clip730)" d="M2040.61 213.971 Q2039.9 213.555 2039.04 213.37 Q2038.21 213.161 2037.19 213.161 Q2033.58 213.161 2031.63 215.522 Q2029.71 217.86 2029.71 222.258 L2029.71 235.916 L2025.43 235.916 L2025.43 209.99 L2029.71 209.99 L2029.71 214.018 Q2031.05 211.657 2033.21 210.522 Q2035.36 209.365 2038.44 209.365 Q2038.88 209.365 2039.41 209.434 Q2039.94 209.481 2040.59 209.596 L2040.61 213.971 Z" fill="#000000" fill-rule="evenodd" fill-opacity="1" /><path clip-path="url(#clip730)" d="M2056.86 222.883 Q2051.7 222.883 2049.71 224.064 Q2047.72 225.244 2047.72 228.092 Q2047.72 230.36 2049.2 231.703 Q2050.71 233.022 2053.28 233.022 Q2056.82 233.022 2058.95 230.522 Q2061.1 227.999 2061.1 223.832 L2061.1 222.883 L2056.86 222.883 M2065.36 221.124 L2065.36 235.916 L2061.1 235.916 L2061.1 231.981 Q2059.64 234.342 2057.47 235.476 Q2055.29 236.587 2052.14 236.587 Q2048.16 236.587 2045.8 234.365 Q2043.46 232.119 2043.46 228.369 Q2043.46 223.994 2046.38 221.772 Q2049.32 219.55 2055.13 219.55 L2061.1 219.55 L2061.1 219.133 Q2061.1 216.194 2059.16 214.596 Q2057.23 212.976 2053.74 212.976 Q2051.52 212.976 2049.41 213.508 Q2047.3 214.041 2045.36 215.106 L2045.36 211.17 Q2047.7 210.268 2049.9 209.828 Q2052.1 209.365 2054.18 209.365 Q2059.8 209.365 2062.58 212.282 Q2065.36 215.198 2065.36 221.124 Z" fill="#000000" fill-rule="evenodd" fill-opacity="1" /><path clip-path="url(#clip730)" d="M2074.13 209.99 L2078.39 209.99 L2078.39 236.379 Q2078.39 241.332 2076.49 243.555 Q2074.62 245.777 2070.43 245.777 L2068.81 245.777 L2068.81 242.166 L2069.94 242.166 Q2072.37 242.166 2073.25 241.031 Q2074.13 239.92 2074.13 236.379 L2074.13 209.99 M2074.13 199.897 L2078.39 199.897 L2078.39 205.291 L2074.13 205.291 L2074.13 199.897 Z" fill="#000000" fill-rule="evenodd" fill-opacity="1" /><path clip-path="url(#clip730)" d="M2109.48 221.888 L2109.48 223.971 L2089.9 223.971 Q2090.17 228.369 2092.54 230.684 Q2094.92 232.976 2099.16 232.976 Q2101.61 232.976 2103.9 232.374 Q2106.22 231.772 2108.48 230.569 L2108.48 234.596 Q2106.19 235.568 2103.79 236.078 Q2101.38 236.587 2098.9 236.587 Q2092.7 236.587 2089.06 232.976 Q2085.45 229.365 2085.45 223.207 Q2085.45 216.842 2088.88 213.115 Q2092.33 209.365 2098.16 209.365 Q2103.39 209.365 2106.42 212.745 Q2109.48 216.101 2109.48 221.888 M2105.22 220.638 Q2105.17 217.143 2103.25 215.059 Q2101.36 212.976 2098.21 212.976 Q2094.64 212.976 2092.49 214.99 Q2090.36 217.004 2090.04 220.661 L2105.22 220.638 Z" fill="#000000" fill-rule="evenodd" fill-opacity="1" /><path clip-path="url(#clip730)" d="M2135.13 210.985 L2135.13 214.967 Q2133.32 213.971 2131.49 213.485 Q2129.69 212.976 2127.84 212.976 Q2123.69 212.976 2121.4 215.615 Q2119.11 218.231 2119.11 222.976 Q2119.11 227.721 2121.4 230.36 Q2123.69 232.976 2127.84 232.976 Q2129.69 232.976 2131.49 232.49 Q2133.32 231.981 2135.13 230.985 L2135.13 234.92 Q2133.35 235.754 2131.42 236.17 Q2129.53 236.587 2127.37 236.587 Q2121.52 236.587 2118.07 232.906 Q2114.62 229.226 2114.62 222.976 Q2114.62 216.633 2118.09 212.999 Q2121.59 209.365 2127.65 209.365 Q2129.62 209.365 2131.49 209.782 Q2133.37 210.175 2135.13 210.985 Z" fill="#000000" fill-rule="evenodd" fill-opacity="1" /><path clip-path="url(#clip730)" d="M2146.75 202.629 L2146.75 209.99 L2155.52 209.99 L2155.52 213.3 L2146.75 213.3 L2146.75 227.374 Q2146.75 230.545 2147.6 231.448 Q2148.48 232.351 2151.15 232.351 L2155.52 232.351 L2155.52 235.916 L2151.15 235.916 Q2146.22 235.916 2144.34 234.087 Q2142.47 232.235 2142.47 227.374 L2142.47 213.3 L2139.34 213.3 L2139.34 209.99 L2142.47 209.99 L2142.47 202.629 L2146.75 202.629 Z" fill="#000000" fill-rule="evenodd" fill-opacity="1" /><path clip-path="url(#clip730)" d="M2171.17 212.976 Q2167.74 212.976 2165.75 215.661 Q2163.76 218.323 2163.76 222.976 Q2163.76 227.629 2165.73 230.314 Q2167.72 232.976 2171.17 232.976 Q2174.57 232.976 2176.56 230.291 Q2178.55 227.606 2178.55 222.976 Q2178.55 218.37 2176.56 215.684 Q2174.57 212.976 2171.17 212.976 M2171.17 209.365 Q2176.73 209.365 2179.9 212.976 Q2183.07 216.587 2183.07 222.976 Q2183.07 229.342 2179.9 232.976 Q2176.73 236.587 2171.17 236.587 Q2165.59 236.587 2162.42 232.976 Q2159.27 229.342 2159.27 222.976 Q2159.27 216.587 2162.42 212.976 Q2165.59 209.365 2171.17 209.365 Z" fill="#000000" fill-rule="evenodd" fill-opacity="1" /><path clip-path="url(#clip730)" d="M2205.15 213.971 Q2204.43 213.555 2203.58 213.37 Q2202.74 213.161 2201.72 213.161 Q2198.11 213.161 2196.17 215.522 Q2194.25 217.86 2194.25 222.258 L2194.25 235.916 L2189.97 235.916 L2189.97 209.99 L2194.25 209.99 L2194.25 214.018 Q2195.59 211.657 2197.74 210.522 Q2199.9 209.365 2202.97 209.365 Q2203.41 209.365 2203.95 209.434 Q2204.48 209.481 2205.13 209.596 L2205.15 213.971 Z" fill="#000000" fill-rule="evenodd" fill-opacity="1" /><path clip-path="url(#clip730)" d="M2220.41 238.323 Q2218.6 242.953 2216.89 244.365 Q2215.17 245.777 2212.3 245.777 L2208.9 245.777 L2208.9 242.212 L2211.4 242.212 Q2213.16 242.212 2214.13 241.379 Q2215.1 240.545 2216.29 237.443 L2217.05 235.499 L2206.56 209.99 L2211.08 209.99 L2219.18 230.268 L2227.28 209.99 L2231.79 209.99 L2220.41 238.323 Z" fill="#000000" fill-rule="evenodd" fill-opacity="1" /></svg>
