<?xml version="1.0" encoding="iso-8859-1"?>
<!-- Generator: Adobe Illustrator 16.0.0, SVG Export Plug-In . SVG Version: 6.00 Build 0)  -->
<!DOCTYPE svg PUBLIC "-//W3C//DTD SVG 1.1//EN" "http://www.w3.org/Graphics/SVG/1.1/DTD/svg11.dtd">
<svg version="1.1" id="Capa_1" xmlns="http://www.w3.org/2000/svg" xmlns:xlink="http://www.w3.org/1999/xlink" x="0px" y="0px"
	 width="337.085px" height="337.086px" viewBox="0 0 337.085 337.086" style="enable-background:new 0 0 337.085 337.086;"
	 xml:space="preserve">
<g>
	<path d="M168.54,0C75.619,0,0.012,75.609,0.012,168.543c0,92.93,75.606,168.543,168.528,168.543
		c92.933,0,168.534-75.613,168.534-168.543C337.074,75.609,261.473,0,168.54,0z M271.405,224.327
		c-2.407,2.402-5.561,3.615-8.713,3.615c-3.158,0-6.311-1.213-8.719-3.615L168.54,138.9l-85.424,85.427
		c-4.816,4.815-12.631,4.815-17.447,0c-4.819-4.815-4.819-12.622,0-17.438l94.152-94.141c4.822-4.815,12.613-4.815,17.426,0
		l94.152,94.141C276.221,211.705,276.221,219.512,271.405,224.327z"/>
</g>
<g>
</g>
<g>
</g>
<g>
</g>
<g>
</g>
<g>
</g>
<g>
</g>
<g>
</g>
<g>
</g>
<g>
</g>
<g>
</g>
<g>
</g>
<g>
</g>
<g>
</g>
<g>
</g>
<g>
</g>
</svg>
